M48
; DRILL file KiCad 10.0.4-10.0.4~ubuntu24.04.1 date 2026-07-23T06:59:07
; FORMAT={-:-/ absolute / metric / decimal}
; #@! TF.CreationDate,2026-07-23T06:59:07+00:00
; #@! TF.GenerationSoftware,Kicad,Pcbnew,10.0.4-10.0.4~ubuntu24.04.1
; #@! TF.FileFunction,MixedPlating,1,6
FMAT,2
METRIC
; #@! TA.AperFunction,Plated,PTH,ViaDrill
T1C0.200
; #@! TA.AperFunction,Plated,PTH,ViaDrill
T2C0.305
; #@! TA.AperFunction,Plated,PTH,ViaDrill
T3C0.305
; #@! TA.AperFunction,Plated,PTH,ViaDrill
T4C0.305
; #@! TA.AperFunction,Plated,PTH,ComponentDrill
T5C0.400
; #@! TA.AperFunction,Plated,PTH,ViaDrill
T6C0.592
; #@! TA.AperFunction,Plated,PTH,ComponentDrill
T7C0.600
; #@! TA.AperFunction,Plated,PTH,ComponentDrill
T8C0.650
; #@! TA.AperFunction,Plated,PTH,ComponentDrill
T9C1.000
; #@! TA.AperFunction,Plated,PTH,ComponentDrill
T10C1.600
; #@! TA.AperFunction,Plated,PTH,ComponentDrill
T11C3.200
; #@! TA.AperFunction,NonPlated,NPTH,ComponentDrill
T12C3.200
%
G90
G05
T1
X18.4Y-79.3
X21.0Y-95.5
X22.5Y-94.8
X24.3Y-95.6
X25.5Y-58.6
X25.7Y-88.9
X25.7Y-90.8
X26.253Y-63.0
X26.6Y-95.0
X27.0Y-70.2
X27.2Y-56.0
X27.6Y-69.9
X28.0Y-79.1
X28.7Y-58.6
X31.7Y-76.4
X32.9Y-79.4
X35.746Y-55.0
X36.9Y-42.9
X37.1Y-101.1
X38.2Y-76.6
X41.0Y-41.0
X41.7Y-79.3
X42.0Y-95.5
X42.4Y-73.4
X42.4Y-74.6
X42.5Y-86.2
X42.5Y-87.2
X42.5Y-88.5
X42.5Y-89.9
X43.0Y-65.4
X43.0Y-81.0
X43.6Y-68.2
T2
X23.0Y-84.0
X37.715Y-73.782
X38.664Y-75.164
X41.908Y-84.5
X42.35Y-75.915
T3
X55.36Y-116.59
T4
X8.289Y-34.73
X8.521Y-94.432
X9.157Y-59.464
X9.182Y-42.442
X9.226Y-32.412
X10.332Y-111.9
X10.614Y-33.273
X11.281Y-83.958
X12.013Y-69.972
X13.052Y-90.672
X13.422Y-36.461
X13.71Y-84.774
X13.836Y-114.904
X14.65Y-81.295
X14.693Y-114.095
X14.827Y-98.538
X15.039Y-36.454
X15.076Y-102.203
X15.43Y-90.181
X15.678Y-87.315
X15.711Y-83.64
X15.923Y-102.657
X16.043Y-88.78
X16.124Y-90.507
X16.124Y-29.056
X16.483Y-97.776
X16.661Y-76.549
X17.879Y-116.758
X18.255Y-111.612
X18.427Y-71.057
X18.539Y-89.386
X18.545Y-93.87
X18.991Y-82.288
X19.17Y-93.262
X19.756Y-66.549
X20.075Y-97.862
X20.329Y-56.864
X20.771Y-76.559
X21.215Y-38.574
X21.262Y-85.498
X21.51Y-81.962
X21.902Y-92.0
X22.002Y-32.86
X22.2Y-55.858
X22.229Y-115.157
X22.623Y-66.362
X22.736Y-95.454
X22.768Y-118.94
X23.85Y-87.955
X24.333Y-69.831
X24.547Y-36.12
X25.334Y-69.169
X25.597Y-110.008
X26.257Y-94.323
X26.477Y-71.54
X26.934Y-57.977
X27.156Y-101.032
X27.495Y-102.734
X28.0Y-77.5
X28.161Y-84.537
X28.474Y-70.822
X28.576Y-104.744
X28.835Y-110.399
X29.214Y-73.811
X29.261Y-105.245
X29.352Y-98.582
X29.67Y-105.92
X29.736Y-100.275
X30.799Y-49.484
X30.903Y-65.546
X30.951Y-73.969
X31.58Y-97.862
X32.033Y-64.783
X32.081Y-74.008
X32.601Y-98.173
X32.627Y-66.193
X32.931Y-76.548
X33.19Y-122.996
X33.581Y-74.092
X33.854Y-42.476
X34.098Y-48.33
X34.162Y-117.345
X35.244Y-103.973
X35.306Y-78.443
X35.322Y-76.902
X35.538Y-106.957
X35.857Y-107.675
X36.072Y-79.06
X36.444Y-89.346
X36.454Y-81.668
X36.532Y-55.556
X36.62Y-92.247
X37.048Y-35.704
X37.107Y-99.48
X37.282Y-103.624
X37.299Y-93.527
X37.361Y-132.136
X37.446Y-88.27
X37.458Y-91.622
X37.504Y-55.733
X37.592Y-107.111
X37.785Y-36.506
X38.289Y-73.22
X38.315Y-105.834
X38.35Y-39.157
X38.376Y-54.572
X38.618Y-68.497
X38.967Y-114.937
X39.027Y-95.545
X39.293Y-109.678
X39.463Y-117.649
X39.511Y-45.709
X39.55Y-65.418
X39.673Y-115.959
X39.823Y-23.017
X39.883Y-93.263
X39.963Y-82.341
X40.467Y-67.068
X40.527Y-48.943
X40.541Y-62.945
X40.84Y-115.444
X40.841Y-105.351
X40.841Y-59.498
X40.844Y-49.652
X40.85Y-47.879
X40.857Y-34.007
X40.857Y-73.403
X40.864Y-58.497
X40.961Y-133.624
X41.14Y-82.801
X41.464Y-17.312
X42.057Y-107.151
X42.114Y-54.832
X42.479Y-82.738
X42.545Y-66.779
X42.551Y-79.239
X42.594Y-93.716
X43.364Y-66.976
X43.42Y-51.296
X43.547Y-93.212
X50.457Y-107.105
X51.314Y-68.78
X51.363Y-82.749
X51.597Y-96.712
X51.76Y-124.612
X51.878Y-40.842
X51.897Y-53.791
X52.924Y-68.532
X53.065Y-59.973
X53.125Y-30.72
X53.131Y-104.724
X53.154Y-46.606
X53.159Y-48.943
X53.164Y-91.213
X53.168Y-119.366
X53.318Y-33.219
X53.404Y-64.624
X53.523Y-77.359
X53.603Y-111.135
X53.783Y-130.275
X53.857Y-32.6
X54.331Y-40.669
X54.366Y-111.202
X54.789Y-122.977
X54.93Y-77.791
X55.342Y-108.546
X55.566Y-61.332
X56.164Y-64.856
X56.19Y-89.154
X56.219Y-108.609
X56.28Y-63.551
X56.523Y-96.775
X57.26Y-81.701
X57.284Y-71.536
X57.4Y-47.557
X57.621Y-114.821
X57.859Y-66.78
X58.478Y-65.919
X58.505Y-95.551
X58.52Y-78.098
X58.555Y-77.317
X58.785Y-66.685
X58.815Y-51.153
X58.819Y-52.786
X59.667Y-105.703
X59.71Y-59.309
X59.869Y-122.443
X60.428Y-73.371
X60.527Y-55.918
X60.586Y-59.686
X60.784Y-72.492
X60.804Y-46.67
X61.098Y-116.851
X61.292Y-76.842
X61.464Y-74.859
X61.507Y-83.586
X62.281Y-32.62
X63.183Y-64.994
X63.385Y-82.2
X63.509Y-28.534
X63.753Y-39.937
X64.587Y-68.797
X64.637Y-67.744
X64.685Y-53.998
X65.821Y-101.038
X66.087Y-79.996
X67.21Y-61.023
X67.354Y-28.529
X67.782Y-52.652
X67.835Y-31.91
X68.372Y-50.09
X68.52Y-76.551
X68.587Y-42.074
X68.766Y-74.486
X68.991Y-44.932
X69.11Y-61.522
X69.16Y-46.227
X69.165Y-47.512
X70.471Y-94.887
X70.69Y-121.313
X71.192Y-71.557
X72.012Y-95.656
X72.154Y-75.276
X72.268Y-60.666
X73.214Y-67.23
X73.515Y-79.425
X73.794Y-60.955
X73.832Y-56.635
X73.892Y-108.162
X73.963Y-66.501
X74.051Y-75.157
X74.275Y-61.778
X74.338Y-92.38
X74.344Y-64.458
X75.885Y-74.971
X76.348Y-70.106
X76.51Y-120.436
X76.565Y-94.456
X76.85Y-89.944
X77.307Y-76.411
X77.345Y-66.321
X77.363Y-114.558
X77.437Y-112.919
X78.141Y-48.375
X78.584Y-46.555
X79.588Y-81.941
X79.614Y-80.165
X81.093Y-70.218
X81.1Y-104.578
X81.564Y-46.55
X81.731Y-58.487
X81.83Y-56.896
X81.933Y-45.735
X82.287Y-68.164
X82.401Y-108.832
X82.404Y-97.509
X82.598Y-72.468
X82.609Y-48.363
X82.623Y-100.157
X82.701Y-65.714
X82.787Y-112.242
X82.791Y-109.669
X82.937Y-51.459
X83.291Y-42.438
X83.33Y-114.635
X83.705Y-81.863
X84.567Y-80.469
X84.578Y-92.488
X84.676Y-108.622
X85.162Y-52.505
X85.163Y-17.182
X85.463Y-68.948
X85.487Y-75.266
X85.506Y-98.455
X85.524Y-61.763
X86.083Y-114.596
X86.668Y-84.459
X86.806Y-37.352
X86.876Y-60.183
X86.918Y-71.153
X87.341Y-110.829
X87.471Y-73.611
X87.483Y-44.662
X87.489Y-95.644
X87.559Y-100.332
X87.967Y-105.628
X88.188Y-106.776
X88.755Y-59.427
X88.756Y-45.309
X88.809Y-51.299
X88.903Y-87.765
X90.233Y-49.673
X90.275Y-89.09
X90.369Y-112.359
X90.421Y-51.129
X90.506Y-84.884
X90.618Y-94.519
X90.886Y-65.365
X90.987Y-58.948
X91.014Y-61.827
X91.213Y-114.123
X91.238Y-51.405
X91.326Y-108.94
X91.333Y-59.994
X91.334Y-73.558
X91.436Y-101.406
X91.565Y-77.416
X91.57Y-79.769
X91.579Y-96.897
X91.609Y-44.264
X91.79Y-39.651
X92.214Y-104.518
X92.821Y-71.232
X92.89Y-113.441
X93.17Y-114.571
X93.56Y-102.135
X93.574Y-88.543
X94.048Y-89.187
X94.419Y-67.39
X94.45Y-88.044
X94.463Y-60.597
X94.605Y-98.994
X94.623Y-77.522
X94.65Y-63.254
X94.795Y-66.445
X94.83Y-84.693
X95.031Y-100.108
X95.157Y-50.495
X95.23Y-110.442
X95.392Y-59.586
X95.606Y-52.471
X95.625Y-54.597
X95.715Y-98.822
X95.905Y-102.11
X95.971Y-39.811
X96.165Y-40.799
X96.167Y-110.708
X96.244Y-73.775
X96.299Y-80.455
X96.306Y-79.223
X96.389Y-48.716
X96.49Y-41.689
X96.742Y-42.668
X96.743Y-114.418
X96.807Y-23.408
X97.174Y-101.904
X98.92Y-116.447
X99.453Y-67.017
X99.687Y-37.071
X99.762Y-93.818
X99.978Y-25.983
X100.133Y-78.763
X100.161Y-100.485
X100.211Y-42.437
X100.241Y-105.17
X100.269Y-26.748
X100.302Y-51.678
X100.339Y-62.314
X100.642Y-66.328
X100.678Y-106.065
X100.71Y-79.268
X100.917Y-78.329
X100.947Y-80.012
X101.017Y-85.955
X101.027Y-77.57
X101.289Y-97.369
X101.48Y-107.395
X101.702Y-78.857
X102.088Y-79.697
X102.289Y-23.76
X102.565Y-75.287
X102.849Y-43.9
X103.837Y-104.211
X103.871Y-23.591
X103.949Y-93.784
X104.019Y-43.231
X104.054Y-18.984
X104.194Y-55.895
X104.219Y-122.232
X104.956Y-51.639
X105.029Y-69.223
X105.056Y-107.695
X105.167Y-64.278
X105.183Y-43.22
X105.655Y-48.945
X106.02Y-96.906
X106.302Y-51.444
X106.424Y-76.562
X106.512Y-54.129
X106.574Y-91.237
X106.595Y-77.445
X106.679Y-99.786
X106.927Y-79.718
X107.032Y-53.267
X107.06Y-42.706
X107.538Y-80.479
X107.622Y-28.533
X107.793Y-97.114
X107.858Y-53.45
X107.939Y-74.863
X107.962Y-94.199
X108.037Y-104.511
X108.093Y-51.385
X108.176Y-99.977
X108.22Y-42.535
X108.867Y-42.946
X109.412Y-97.174
X109.594Y-43.228
X109.636Y-80.314
X110.146Y-85.496
X110.279Y-98.51
X110.362Y-46.119
X110.437Y-99.274
X110.852Y-102.515
X110.972Y-107.675
X111.008Y-45.671
X111.224Y-93.963
X111.386Y-99.973
X111.506Y-80.759
X111.589Y-96.747
X111.643Y-102.425
X111.737Y-79.979
X111.85Y-51.242
X112.295Y-110.21
X112.299Y-81.869
X112.53Y-77.239
X113.054Y-99.726
X113.347Y-97.32
X113.362Y-114.999
X113.414Y-66.139
X113.843Y-21.453
X113.865Y-51.668
X114.318Y-84.298
X114.37Y-37.036
X114.565Y-111.459
X114.651Y-141.806
X114.656Y-82.319
X114.71Y-24.74
X115.021Y-96.203
X115.055Y-105.193
X115.256Y-112.3
X115.354Y-48.422
X115.419Y-82.174
X116.265Y-105.058
X116.303Y-83.447
X117.551Y-20.954
X117.825Y-76.999
X118.142Y-84.451
X118.477Y-49.184
X118.484Y-90.822
X118.518Y-115.541
X118.786Y-13.557
X118.926Y-77.307
X119.163Y-93.057
X119.208Y-114.482
X119.268Y-33.593
X119.441Y-91.462
X119.444Y-120.439
X119.451Y-101.391
X119.501Y-51.28
X119.532Y-18.747
X119.565Y-92.218
X119.648Y-85.026
X119.981Y-48.228
X120.517Y-92.191
X120.599Y-117.314
X120.739Y-96.089
X122.463Y-104.671
X122.506Y-35.554
X122.711Y-108.427
X122.899Y-46.237
X123.046Y-9.612
X123.101Y-44.935
X123.246Y-40.852
X123.397Y-52.635
X123.419Y-88.422
X123.425Y-86.636
X123.469Y-55.605
X123.648Y-73.645
X123.807Y-102.892
X123.9Y-115.113
X124.452Y-47.543
X124.561Y-96.029
X124.665Y-54.77
X124.732Y-115.349
X125.331Y-114.453
X125.376Y-60.387
X125.45Y-100.44
X125.527Y-43.04
X125.951Y-52.349
X125.955Y-47.232
X126.232Y-50.821
X126.443Y-92.459
X126.607Y-95.823
X127.575Y-76.317
X127.704Y-67.582
X127.951Y-100.363
X128.114Y-13.108
X128.2Y-101.461
X128.207Y-97.242
X128.21Y-88.49
X128.528Y-114.308
X128.568Y-48.047
X128.646Y-91.98
X128.706Y-89.643
X128.708Y-95.382
X128.72Y-98.251
X128.867Y-96.851
X128.871Y-109.089
X128.879Y-108.139
X129.56Y-62.112
X129.778Y-52.424
X130.235Y-58.868
X130.333Y-83.514
X131.044Y-99.9
X131.411Y-112.429
X131.484Y-58.941
X131.629Y-100.498
X131.671Y-96.865
X131.68Y-65.547
X131.729Y-92.289
X131.744Y-75.677
X132.024Y-99.371
X132.203Y-94.642
X132.234Y-93.709
X132.344Y-54.058
X132.463Y-65.514
X132.73Y-102.031
X132.746Y-74.862
X132.832Y-72.055
X132.965Y-39.138
X133.449Y-76.716
X133.595Y-67.027
X133.757Y-96.787
X133.868Y-105.267
X134.231Y-100.482
X134.329Y-103.301
X134.33Y-104.521
X134.778Y-97.309
X134.826Y-94.003
X134.957Y-96.144
X136.894Y-34.442
X137.482Y-86.205
X138.272Y-11.356
X138.383Y-102.022
X138.638Y-6.048
X138.734Y-65.418
X138.958Y-9.733
X139.072Y-89.09
X139.127Y-11.422
X139.671Y-53.403
X139.82Y-5.474
X139.955Y-6.565
X140.513Y-85.826
X140.723Y-92.522
X141.417Y-110.272
X142.587Y-62.673
X142.988Y-116.488
X142.993Y-11.666
X143.349Y-52.961
X143.371Y-44.02
X143.637Y-6.597
X143.932Y-9.895
X143.978Y-82.233
X144.084Y-61.83
X144.576Y-15.591
X144.796Y-94.664
X146.167Y-88.199
X146.31Y-14.46
X147.795Y-63.613
X148.639Y-13.557
X149.236Y-89.247
X149.613Y-57.429
X152.85Y-93.249
X153.631Y-76.443
X154.172Y-69.629
X154.196Y-63.788
X154.882Y-94.696
X156.595Y-80.132
X156.786Y-54.387
T5
X7.052Y-24.0
X7.052Y-24.85
X7.052Y-25.7
X7.052Y-26.55
X7.052Y-27.4
X7.052Y-28.25
X7.052Y-29.1
X7.052Y-29.95
X8.402Y-24.0
X8.402Y-24.85
X8.402Y-25.7
X8.402Y-26.55
X8.402Y-27.4
X8.402Y-28.25
X8.402Y-29.1
X8.402Y-29.95
T6
X50.383Y-141.037
X51.493Y-121.284
X51.608Y-37.497
X52.018Y-65.44
X53.204Y-112.088
X53.262Y-134.888
X53.266Y-71.337
X53.274Y-42.487
X53.274Y-105.908
X53.291Y-84.572
X53.293Y-92.538
X53.298Y-27.685
X53.298Y-78.455
X53.299Y-98.557
X53.314Y-50.674
X53.775Y-56.875
X54.146Y-18.33
X54.316Y-127.054
X55.691Y-119.325
X56.415Y-114.423
X57.226Y-68.332
X57.947Y-73.906
X57.958Y-41.334
X61.245Y-25.393
X61.408Y-111.39
X62.204Y-68.403
X62.234Y-47.398
X62.314Y-122.244
X62.846Y-115.539
X63.34Y-77.652
X63.346Y-118.372
X63.389Y-46.391
X63.471Y-66.569
X63.476Y-52.546
X63.542Y-55.637
X64.17Y-30.653
X65.373Y-74.049
X65.851Y-35.467
X65.912Y-32.096
X66.732Y-72.749
X68.93Y-79.713
X69.051Y-48.787
X69.5Y-82.647
X70.138Y-32.285
X70.2Y-74.623
X70.278Y-37.695
X72.413Y-87.387
X72.543Y-62.566
X72.636Y-79.661
X73.581Y-45.742
X73.602Y-53.258
X75.242Y-81.439
X76.743Y-90.967
X77.952Y-51.723
X78.162Y-71.473
X78.49Y-60.771
X79.916Y-63.77
X80.222Y-98.713
X80.49Y-52.381
X80.544Y-93.347
X80.596Y-74.417
X80.774Y-73.179
X80.93Y-113.568
X80.931Y-54.882
X81.172Y-86.797
X81.245Y-98.975
X81.363Y-65.014
X82.286Y-105.161
X82.393Y-95.575
X82.649Y-40.473
X82.748Y-59.621
X82.977Y-46.143
X83.038Y-49.333
X84.126Y-104.76
X84.262Y-83.764
X85.257Y-113.842
X85.794Y-88.39
X85.83Y-64.301
X85.882Y-54.169
X86.577Y-85.393
X86.749Y-102.358
X87.022Y-107.603
X87.219Y-112.109
X87.362Y-75.329
X88.061Y-48.291
X89.215Y-54.191
X89.553Y-46.837
X90.772Y-56.238
X91.346Y-52.834
X92.302Y-102.391
X92.719Y-107.604
X93.628Y-41.474
X94.128Y-44.538
X94.766Y-76.37
X94.844Y-57.325
X95.185Y-94.406
X96.031Y-69.538
X96.685Y-125.173
X99.067Y-22.41
X99.336Y-16.416
X100.428Y-45.206
X100.448Y-112.119
X100.881Y-110.854
X101.154Y-21.053
X101.245Y-40.841
X102.969Y-118.936
X103.103Y-47.206
X103.433Y-114.066
X104.221Y-47.761
X104.633Y-18.108
X106.113Y-25.858
X106.427Y-92.53
X106.807Y-48.479
X107.225Y-102.698
X107.292Y-22.457
X107.455Y-45.861
X108.117Y-20.419
X109.164Y-16.404
X110.222Y-48.428
X110.725Y-19.389
X110.879Y-123.418
X112.882Y-102.801
X112.98Y-24.527
X113.2Y-8.457
X114.376Y-115.103
X115.344Y-117.35
X115.62Y-23.792
X115.766Y-17.5
X116.427Y-32.977
X116.75Y-107.923
X116.787Y-95.498
X117.518Y-99.673
X118.332Y-96.226
X118.55Y-93.86
X119.703Y-112.446
X120.789Y-14.599
X121.228Y-99.949
X121.725Y-6.412
X122.37Y-10.822
X122.392Y-20.497
X122.719Y-68.752
X123.874Y-109.151
X125.078Y-44.885
X125.571Y-20.365
X125.587Y-22.332
X126.355Y-16.223
X126.381Y-83.005
X126.975Y-6.387
X127.404Y-106.477
X128.229Y-10.826
X128.351Y-85.739
X130.04Y-106.233
X130.989Y-28.034
X131.971Y-103.396
X132.624Y-6.135
X133.127Y-13.272
X133.5Y-21.5
X133.908Y-18.219
X134.061Y-10.608
X134.342Y-95.324
X135.122Y-10.386
X135.621Y-6.416
X135.633Y-11.637
X137.316Y-103.014
X137.333Y-30.845
X137.96Y-98.641
X139.357Y-33.625
X140.5Y-26.5
X140.664Y-40.434
X141.178Y-36.881
X141.373Y-50.07
X141.579Y-15.704
X141.949Y-9.062
X146.806Y-124.219
X149.338Y-21.761
X150.366Y-76.796
X150.683Y-63.89
X151.215Y-95.167
X151.793Y-80.465
X152.077Y-42.225
X152.279Y-66.173
X152.455Y-97.562
X152.966Y-85.814
X156.043Y-86.957
X156.561Y-59.071
X157.031Y-49.97
X157.357Y-66.214
X158.142Y-81.208
X159.0Y-60.22
X159.624Y-96.721
X159.837Y-45.786
X160.61Y-72.856
X160.996Y-52.954
X161.5Y-37.0
T8
X32.95Y-70.355
X32.95Y-71.625
X34.22Y-70.355
X34.22Y-71.625
X35.49Y-70.355
X35.49Y-71.625
X36.76Y-70.355
X36.76Y-71.625
X38.03Y-70.355
X38.03Y-71.625
T9
X171.0Y-65.0
X171.0Y-67.77
X171.0Y-70.54
X171.0Y-73.31
X171.0Y-76.08
X171.0Y-78.85
X171.0Y-81.62
X171.0Y-84.39
X171.0Y-87.16
X171.0Y-89.93
X171.0Y-92.7
X171.0Y-95.47
X171.0Y-98.24
X173.84Y-66.385
X173.84Y-69.155
X173.84Y-71.925
X173.84Y-74.695
X173.84Y-77.465
X173.84Y-80.235
X173.84Y-83.005
X173.84Y-85.775
X173.84Y-88.545
X173.84Y-91.315
X173.84Y-94.085
X173.84Y-96.855
T10
X171.0Y-128.0
X174.0Y-123.3
X177.0Y-128.0
T11
X172.42Y-58.07
X172.42Y-105.17
T12
X6.302Y-4.375
X6.302Y-144.28
X180.7Y-4.375
X180.7Y-144.28
T7
X4.442Y-22.65G85X3.642Y-22.65
G05
X4.442Y-31.3G85X3.642Y-31.3
G05
X8.172Y-22.65G85X6.672Y-22.65
G05
X8.172Y-31.3G85X6.672Y-31.3
G05
M30
