%TF.GenerationSoftware,KiCad,Pcbnew,10.0.4-10.0.4~ubuntu24.04.1*%
%TF.CreationDate,2026-07-23T06:59:04+00:00*%
%TF.ProjectId,omnibox-v1,6f6d6e69-626f-4782-9d76-312e6b696361,rev?*%
%TF.SameCoordinates,Original*%
%TF.FileFunction,Other,User*%
%FSLAX46Y46*%
G04 Gerber Fmt 4.6, Leading zero omitted, Abs format (unit mm)*
G04 Created by KiCad (PCBNEW 10.0.4-10.0.4~ubuntu24.04.1) date 2026-07-23 06:59:04*
%MOMM*%
%LPD*%
G01*
G04 APERTURE LIST*
%ADD10C,0.050000*%
G04 APERTURE END LIST*
%TO.C,C_PWR7*%
D10*
X129300000Y-12520000D02*
X132700000Y-12520000D01*
X129300000Y-14480000D02*
X129300000Y-12520000D01*
X132700000Y-12520000D02*
X132700000Y-14480000D01*
X132700000Y-14480000D02*
X129300000Y-14480000D01*
%TO.C,D_BN3*%
X146372500Y-53750000D02*
X153672500Y-53750000D01*
X146372500Y-58250000D02*
X146372500Y-53750000D01*
X153672500Y-53750000D02*
X153672500Y-58250000D01*
X153672500Y-58250000D02*
X146372500Y-58250000D01*
%TO.C,R_J18m1*%
X92520000Y-108770000D02*
X95480000Y-108770000D01*
X92520000Y-110230000D02*
X92520000Y-108770000D01*
X95480000Y-108770000D02*
X95480000Y-110230000D01*
X95480000Y-110230000D02*
X92520000Y-110230000D01*
%TO.C,R_J18d1*%
X119520000Y-105770000D02*
X122480000Y-105770000D01*
X119520000Y-107230000D02*
X119520000Y-105770000D01*
X122480000Y-105770000D02*
X122480000Y-107230000D01*
X122480000Y-107230000D02*
X119520000Y-107230000D01*
%TO.C,C30*%
X12520000Y-34770000D02*
X15480000Y-34770000D01*
X12520000Y-36230000D02*
X12520000Y-34770000D01*
X15480000Y-34770000D02*
X15480000Y-36230000D01*
X15480000Y-36230000D02*
X12520000Y-36230000D01*
%TO.C,R_J18p1*%
X124520000Y-100770000D02*
X127480000Y-100770000D01*
X124520000Y-102230000D02*
X124520000Y-100770000D01*
X127480000Y-100770000D02*
X127480000Y-102230000D01*
X127480000Y-102230000D02*
X124520000Y-102230000D01*
%TO.C,R_ISO1*%
X16020000Y-117270000D02*
X18980000Y-117270000D01*
X16020000Y-118730000D02*
X16020000Y-117270000D01*
X18980000Y-117270000D02*
X18980000Y-118730000D01*
X18980000Y-118730000D02*
X16020000Y-118730000D01*
%TO.C,D_ESD13*%
X154372500Y-53750000D02*
X161672500Y-53750000D01*
X154372500Y-58250000D02*
X154372500Y-53750000D01*
X161672500Y-53750000D02*
X161672500Y-58250000D01*
X161672500Y-58250000D02*
X154372500Y-58250000D01*
%TO.C,C_SW2*%
X96300000Y-44520000D02*
X99700000Y-44520000D01*
X96300000Y-46480000D02*
X96300000Y-44520000D01*
X99700000Y-44520000D02*
X99700000Y-46480000D01*
X99700000Y-46480000D02*
X96300000Y-46480000D01*
%TO.C,R_PWR3*%
X119020000Y-9770000D02*
X121980000Y-9770000D01*
X119020000Y-11230000D02*
X119020000Y-9770000D01*
X121980000Y-9770000D02*
X121980000Y-11230000D01*
X121980000Y-11230000D02*
X119020000Y-11230000D01*
%TO.C,C89*%
X138020000Y-99770000D02*
X140980000Y-99770000D01*
X138020000Y-101230000D02*
X138020000Y-99770000D01*
X140980000Y-99770000D02*
X140980000Y-101230000D01*
X140980000Y-101230000D02*
X138020000Y-101230000D01*
%TO.C,U_ISO3*%
X54450000Y-114887500D02*
X54450000Y-118287500D01*
X54450000Y-118287500D02*
X58550000Y-118287500D01*
X58550000Y-114887500D02*
X54450000Y-114887500D01*
X58550000Y-118287500D02*
X58550000Y-114887500D01*
%TO.C,U_SW1*%
X91800000Y-47865000D02*
X91800000Y-53265000D01*
X91800000Y-53265000D02*
X99200000Y-53265000D01*
X99200000Y-47865000D02*
X91800000Y-47865000D01*
X99200000Y-53265000D02*
X99200000Y-47865000D01*
%TO.C,C_KL1a1*%
X78020000Y-64770000D02*
X80980000Y-64770000D01*
X78020000Y-66230000D02*
X78020000Y-64770000D01*
X80980000Y-64770000D02*
X80980000Y-66230000D01*
X80980000Y-66230000D02*
X78020000Y-66230000D01*
%TO.C,C90*%
X133020000Y-106770000D02*
X135980000Y-106770000D01*
X133020000Y-108230000D02*
X133020000Y-106770000D01*
X135980000Y-106770000D02*
X135980000Y-108230000D01*
X135980000Y-108230000D02*
X133020000Y-108230000D01*
%TO.C,C_OSC1*%
X19020000Y-59270000D02*
X21980000Y-59270000D01*
X19020000Y-60730000D02*
X19020000Y-59270000D01*
X21980000Y-59270000D02*
X21980000Y-60730000D01*
X21980000Y-60730000D02*
X19020000Y-60730000D01*
%TO.C,U_CAN4T1*%
X91800000Y-54497500D02*
X91800000Y-63657500D01*
X91800000Y-63657500D02*
X99200000Y-63657500D01*
X99200000Y-54497500D02*
X91800000Y-54497500D01*
X99200000Y-63657500D02*
X99200000Y-54497500D01*
%TO.C,R_J18j1*%
X118020000Y-112770000D02*
X120980000Y-112770000D01*
X118020000Y-114230000D02*
X118020000Y-112770000D01*
X120980000Y-112770000D02*
X120980000Y-114230000D01*
X120980000Y-114230000D02*
X118020000Y-114230000D01*
%TO.C,R_J18r1*%
X122520000Y-111770000D02*
X125480000Y-111770000D01*
X122520000Y-113230000D02*
X122520000Y-111770000D01*
X125480000Y-111770000D02*
X125480000Y-113230000D01*
X125480000Y-113230000D02*
X122520000Y-113230000D01*
%TO.C,C_MCU4*%
X19020000Y-67270000D02*
X21980000Y-67270000D01*
X19020000Y-68730000D02*
X19020000Y-67270000D01*
X21980000Y-67270000D02*
X21980000Y-68730000D01*
X21980000Y-68730000D02*
X19020000Y-68730000D01*
%TO.C,R_RM5*%
X138520000Y-95770000D02*
X141480000Y-95770000D01*
X138520000Y-97230000D02*
X138520000Y-95770000D01*
X141480000Y-95770000D02*
X141480000Y-97230000D01*
X141480000Y-97230000D02*
X138520000Y-97230000D01*
%TO.C,R26*%
X62020000Y-78770000D02*
X64980000Y-78770000D01*
X62020000Y-80230000D02*
X62020000Y-78770000D01*
X64980000Y-78770000D02*
X64980000Y-80230000D01*
X64980000Y-80230000D02*
X62020000Y-80230000D01*
%TO.C,R_KL3d1*%
X77020000Y-114770000D02*
X79980000Y-114770000D01*
X77020000Y-116230000D02*
X77020000Y-114770000D01*
X79980000Y-114770000D02*
X79980000Y-116230000D01*
X79980000Y-116230000D02*
X77020000Y-116230000D01*
%TO.C,R_J18h1*%
X125020000Y-93770000D02*
X127980000Y-93770000D01*
X125020000Y-95230000D02*
X125020000Y-93770000D01*
X127980000Y-93770000D02*
X127980000Y-95230000D01*
X127980000Y-95230000D02*
X125020000Y-95230000D01*
%TO.C,R_J18b1*%
X113020000Y-117770000D02*
X115980000Y-117770000D01*
X113020000Y-119230000D02*
X113020000Y-117770000D01*
X115980000Y-117770000D02*
X115980000Y-119230000D01*
X115980000Y-119230000D02*
X113020000Y-119230000D01*
%TO.C,R_LED1*%
X9520000Y-112270000D02*
X12480000Y-112270000D01*
X9520000Y-113730000D02*
X9520000Y-112270000D01*
X12480000Y-112270000D02*
X12480000Y-113730000D01*
X12480000Y-113730000D02*
X9520000Y-113730000D01*
%TO.C,C_J18d1*%
X113020000Y-112770000D02*
X115980000Y-112770000D01*
X113020000Y-114230000D02*
X113020000Y-112770000D01*
X115980000Y-112770000D02*
X115980000Y-114230000D01*
X115980000Y-114230000D02*
X113020000Y-114230000D01*
%TO.C,C68*%
X82020000Y-52770000D02*
X84980000Y-52770000D01*
X82020000Y-54230000D02*
X82020000Y-52770000D01*
X84980000Y-52770000D02*
X84980000Y-54230000D01*
X84980000Y-54230000D02*
X82020000Y-54230000D01*
%TO.C,R_KL1f1*%
X77520000Y-75770000D02*
X80480000Y-75770000D01*
X77520000Y-77230000D02*
X77520000Y-75770000D01*
X80480000Y-75770000D02*
X80480000Y-77230000D01*
X80480000Y-77230000D02*
X77520000Y-77230000D01*
%TO.C,C_FE7*%
X112020000Y-16770000D02*
X114980000Y-16770000D01*
X112020000Y-18230000D02*
X112020000Y-16770000D01*
X114980000Y-16770000D02*
X114980000Y-18230000D01*
X114980000Y-18230000D02*
X112020000Y-18230000D01*
%TO.C,R_ISO4*%
X54520000Y-108770000D02*
X57480000Y-108770000D01*
X54520000Y-110230000D02*
X54520000Y-108770000D01*
X57480000Y-108770000D02*
X57480000Y-110230000D01*
X57480000Y-110230000D02*
X54520000Y-110230000D01*
%TO.C,C62*%
X80020000Y-102770000D02*
X82980000Y-102770000D01*
X80020000Y-104230000D02*
X80020000Y-102770000D01*
X82980000Y-102770000D02*
X82980000Y-104230000D01*
X82980000Y-104230000D02*
X80020000Y-104230000D01*
%TO.C,K_RM2*%
X115750000Y-83650000D02*
X115750000Y-74350000D01*
X115750000Y-83650000D02*
X126250000Y-83650000D01*
X126250000Y-74350000D02*
X115750000Y-74350000D01*
X126250000Y-74350000D02*
X126250000Y-83650000D01*
%TO.C,D_ESD12*%
X152372500Y-71750000D02*
X159672500Y-71750000D01*
X152372500Y-76250000D02*
X152372500Y-71750000D01*
X159672500Y-71750000D02*
X159672500Y-76250000D01*
X159672500Y-76250000D02*
X152372500Y-76250000D01*
%TO.C,U_RM_SW2*%
X129462500Y-92750000D02*
X129462500Y-98250000D01*
X129462500Y-98250000D02*
X137162500Y-98250000D01*
X137162500Y-92750000D02*
X129462500Y-92750000D01*
X137162500Y-98250000D02*
X137162500Y-92750000D01*
%TO.C,R_FE9*%
X135720000Y-39380000D02*
X140280000Y-39380000D01*
X135720000Y-41620000D02*
X135720000Y-39380000D01*
X140280000Y-39380000D02*
X140280000Y-41620000D01*
X140280000Y-41620000D02*
X135720000Y-41620000D01*
%TO.C,D_ISO2*%
X54522500Y-33750000D02*
X61522500Y-33750000D01*
X54522500Y-37250000D02*
X54522500Y-33750000D01*
X61522500Y-33750000D02*
X61522500Y-37250000D01*
X61522500Y-37250000D02*
X54522500Y-37250000D01*
%TO.C,C_MCU1*%
X26020000Y-68270000D02*
X28980000Y-68270000D01*
X26020000Y-69730000D02*
X26020000Y-68270000D01*
X28980000Y-68270000D02*
X28980000Y-69730000D01*
X28980000Y-69730000D02*
X26020000Y-69730000D01*
%TO.C,R_ISO2*%
X19020000Y-55270000D02*
X21980000Y-55270000D01*
X19020000Y-56730000D02*
X19020000Y-55270000D01*
X21980000Y-55270000D02*
X21980000Y-56730000D01*
X21980000Y-56730000D02*
X19020000Y-56730000D01*
%TO.C,FID3*%
X12552500Y-144280000D02*
G75*
G02*
X10052500Y-144280000I-1250000J0D01*
G01*
X10052500Y-144280000D02*
G75*
G02*
X12552500Y-144280000I1250000J0D01*
G01*
%TO.C,U_CAN4*%
X64800000Y-51342500D02*
X64800000Y-60502500D01*
X64800000Y-60502500D02*
X72200000Y-60502500D01*
X72200000Y-51342500D02*
X64800000Y-51342500D01*
X72200000Y-60502500D02*
X72200000Y-51342500D01*
%TO.C,C_PWR3*%
X130300000Y-9520000D02*
X133700000Y-9520000D01*
X130300000Y-11480000D02*
X130300000Y-9520000D01*
X133700000Y-9520000D02*
X133700000Y-11480000D01*
X133700000Y-11480000D02*
X130300000Y-11480000D01*
%TO.C,D_ESD7*%
X144372500Y-89750000D02*
X151672500Y-89750000D01*
X144372500Y-94250000D02*
X144372500Y-89750000D01*
X151672500Y-89750000D02*
X151672500Y-94250000D01*
X151672500Y-94250000D02*
X144372500Y-94250000D01*
%TO.C,LED_V1*%
X54540000Y-111770000D02*
X57500000Y-111770000D01*
X54540000Y-113230000D02*
X54540000Y-111770000D01*
X57500000Y-111770000D02*
X57500000Y-113230000D01*
X57500000Y-113230000D02*
X54540000Y-113230000D01*
%TO.C,R_KL2d1*%
X87020000Y-36770000D02*
X89980000Y-36770000D01*
X87020000Y-38230000D02*
X87020000Y-36770000D01*
X89980000Y-36770000D02*
X89980000Y-38230000D01*
X89980000Y-38230000D02*
X87020000Y-38230000D01*
%TO.C,R_KL1c1*%
X92020000Y-38770000D02*
X94980000Y-38770000D01*
X92020000Y-40230000D02*
X92020000Y-38770000D01*
X94980000Y-38770000D02*
X94980000Y-40230000D01*
X94980000Y-40230000D02*
X92020000Y-40230000D01*
%TO.C,C_FE3*%
X109020000Y-19770000D02*
X111980000Y-19770000D01*
X109020000Y-21230000D02*
X109020000Y-19770000D01*
X111980000Y-19770000D02*
X111980000Y-21230000D01*
X111980000Y-21230000D02*
X109020000Y-21230000D01*
%TO.C,R_KL3e1*%
X92520000Y-111770000D02*
X95480000Y-111770000D01*
X92520000Y-113230000D02*
X92520000Y-111770000D01*
X95480000Y-111770000D02*
X95480000Y-113230000D01*
X95480000Y-113230000D02*
X92520000Y-113230000D01*
%TO.C,C_SW1*%
X91020000Y-44770000D02*
X93980000Y-44770000D01*
X91020000Y-46230000D02*
X91020000Y-44770000D01*
X93980000Y-44770000D02*
X93980000Y-46230000D01*
X93980000Y-46230000D02*
X91020000Y-46230000D01*
%TO.C,C_ISO6*%
X60020000Y-117770000D02*
X62980000Y-117770000D01*
X60020000Y-119230000D02*
X60020000Y-117770000D01*
X62980000Y-117770000D02*
X62980000Y-119230000D01*
X62980000Y-119230000D02*
X60020000Y-119230000D01*
%TO.C,C61*%
X85020000Y-105770000D02*
X87980000Y-105770000D01*
X85020000Y-107230000D02*
X85020000Y-105770000D01*
X87980000Y-105770000D02*
X87980000Y-107230000D01*
X87980000Y-107230000D02*
X85020000Y-107230000D01*
%TO.C,C_MCU11*%
X11020000Y-68270000D02*
X13980000Y-68270000D01*
X11020000Y-69730000D02*
X11020000Y-68270000D01*
X13980000Y-68270000D02*
X13980000Y-69730000D01*
X13980000Y-69730000D02*
X11020000Y-69730000D01*
%TO.C,X_CAN1*%
X59000000Y-50300000D02*
X59000000Y-53700000D01*
X59000000Y-53700000D02*
X63000000Y-53700000D01*
X63000000Y-50300000D02*
X59000000Y-50300000D01*
X63000000Y-53700000D02*
X63000000Y-50300000D01*
%TO.C,R_J18a1*%
X112520000Y-120770000D02*
X115480000Y-120770000D01*
X112520000Y-122230000D02*
X112520000Y-120770000D01*
X115480000Y-120770000D02*
X115480000Y-122230000D01*
X115480000Y-122230000D02*
X112520000Y-122230000D01*
%TO.C,C_FE1*%
X109300000Y-22520000D02*
X112700000Y-22520000D01*
X109300000Y-24480000D02*
X109300000Y-22520000D01*
X112700000Y-22520000D02*
X112700000Y-24480000D01*
X112700000Y-24480000D02*
X109300000Y-24480000D01*
%TO.C,H4*%
X184150000Y-144280000D02*
G75*
G02*
X177250000Y-144280000I-3450000J0D01*
G01*
X177250000Y-144280000D02*
G75*
G02*
X184150000Y-144280000I3450000J0D01*
G01*
%TO.C,C74*%
X82020000Y-49770000D02*
X84980000Y-49770000D01*
X82020000Y-51230000D02*
X82020000Y-49770000D01*
X84980000Y-49770000D02*
X84980000Y-51230000D01*
X84980000Y-51230000D02*
X82020000Y-51230000D01*
%TO.C,D_J18a1*%
X94672500Y-102350000D02*
X94672500Y-104650000D01*
X94672500Y-102350000D02*
X99372500Y-102350000D01*
X99372500Y-102350000D02*
X99372500Y-104650000D01*
X99372500Y-104650000D02*
X94672500Y-104650000D01*
%TO.C,R_KL2c1*%
X82020000Y-37770000D02*
X84980000Y-37770000D01*
X82020000Y-39230000D02*
X82020000Y-37770000D01*
X84980000Y-37770000D02*
X84980000Y-39230000D01*
X84980000Y-39230000D02*
X82020000Y-39230000D01*
%TO.C,U_CAN5*%
X64800000Y-61342500D02*
X64800000Y-70502500D01*
X64800000Y-70502500D02*
X72200000Y-70502500D01*
X72200000Y-61342500D02*
X64800000Y-61342500D01*
X72200000Y-70502500D02*
X72200000Y-61342500D01*
%TO.C,R_BOOT1*%
X23020000Y-118270000D02*
X25980000Y-118270000D01*
X23020000Y-119730000D02*
X23020000Y-118270000D01*
X25980000Y-118270000D02*
X25980000Y-119730000D01*
X25980000Y-119730000D02*
X23020000Y-119730000D01*
%TO.C,D_BN5*%
X144372500Y-65750000D02*
X151672500Y-65750000D01*
X144372500Y-70250000D02*
X144372500Y-65750000D01*
X151672500Y-65750000D02*
X151672500Y-70250000D01*
X151672500Y-70250000D02*
X144372500Y-70250000D01*
%TO.C,C19*%
X62520000Y-28770000D02*
X65480000Y-28770000D01*
X62520000Y-30230000D02*
X62520000Y-28770000D01*
X65480000Y-28770000D02*
X65480000Y-30230000D01*
X65480000Y-30230000D02*
X62520000Y-30230000D01*
%TO.C,D_PWR1*%
X145000000Y-28500000D02*
X160500000Y-28500000D01*
X160500000Y-39500000D01*
X145000000Y-39500000D01*
X145000000Y-28500000D01*
%TO.C,C_RM2*%
X136020000Y-32770000D02*
X138980000Y-32770000D01*
X136020000Y-34230000D02*
X136020000Y-32770000D01*
X138980000Y-32770000D02*
X138980000Y-34230000D01*
X138980000Y-34230000D02*
X136020000Y-34230000D01*
%TO.C,U_RM4*%
X105350000Y-94462500D02*
X105350000Y-102162500D01*
X105350000Y-102162500D02*
X113650000Y-102162500D01*
X113650000Y-94462500D02*
X105350000Y-94462500D01*
X113650000Y-102162500D02*
X113650000Y-94462500D01*
%TO.C,U_FE3*%
X117800000Y-18735000D02*
X117800000Y-24135000D01*
X117800000Y-24135000D02*
X125200000Y-24135000D01*
X125200000Y-18735000D02*
X117800000Y-18735000D01*
X125200000Y-24135000D02*
X125200000Y-18735000D01*
%TO.C,C57*%
X85020000Y-102770000D02*
X87980000Y-102770000D01*
X85020000Y-104230000D02*
X85020000Y-102770000D01*
X87980000Y-102770000D02*
X87980000Y-104230000D01*
X87980000Y-104230000D02*
X85020000Y-104230000D01*
%TO.C,R_KL3a1*%
X87520000Y-54770000D02*
X90480000Y-54770000D01*
X87520000Y-56230000D02*
X87520000Y-54770000D01*
X90480000Y-54770000D02*
X90480000Y-56230000D01*
X90480000Y-56230000D02*
X87520000Y-56230000D01*
%TO.C,F1*%
X144810000Y-20670000D02*
X152190000Y-20670000D01*
X144810000Y-24330000D02*
X144810000Y-20670000D01*
X152190000Y-20670000D02*
X152190000Y-24330000D01*
X152190000Y-24330000D02*
X144810000Y-24330000D01*
%TO.C,R_KL3f1*%
X77520000Y-85770000D02*
X80480000Y-85770000D01*
X77520000Y-87230000D02*
X77520000Y-85770000D01*
X80480000Y-85770000D02*
X80480000Y-87230000D01*
X80480000Y-87230000D02*
X77520000Y-87230000D01*
%TO.C,Y1*%
X21900000Y-99300000D02*
X21900000Y-102700000D01*
X21900000Y-102700000D02*
X26100000Y-102700000D01*
X26100000Y-99300000D02*
X21900000Y-99300000D01*
X26100000Y-102700000D02*
X26100000Y-99300000D01*
%TO.C,U_CAN5T1*%
X82800000Y-60497500D02*
X82800000Y-69657500D01*
X82800000Y-69657500D02*
X90200000Y-69657500D01*
X90200000Y-60497500D02*
X82800000Y-60497500D01*
X90200000Y-69657500D02*
X90200000Y-60497500D01*
%TO.C,R_USB1*%
X8520000Y-36770000D02*
X11480000Y-36770000D01*
X8520000Y-38230000D02*
X8520000Y-36770000D01*
X11480000Y-36770000D02*
X11480000Y-38230000D01*
X11480000Y-38230000D02*
X8520000Y-38230000D01*
%TO.C,C20*%
X13520000Y-99770000D02*
X16480000Y-99770000D01*
X13520000Y-101230000D02*
X13520000Y-99770000D01*
X16480000Y-99770000D02*
X16480000Y-101230000D01*
X16480000Y-101230000D02*
X13520000Y-101230000D01*
%TO.C,C_FE6*%
X123020000Y-15770000D02*
X125980000Y-15770000D01*
X123020000Y-17230000D02*
X123020000Y-15770000D01*
X125980000Y-15770000D02*
X125980000Y-17230000D01*
X125980000Y-17230000D02*
X123020000Y-17230000D01*
%TO.C,R_FE14*%
X113520000Y-19770000D02*
X116480000Y-19770000D01*
X113520000Y-21230000D02*
X113520000Y-19770000D01*
X116480000Y-19770000D02*
X116480000Y-21230000D01*
X116480000Y-21230000D02*
X113520000Y-21230000D01*
%TO.C,Q_J18*%
X87580000Y-109887500D02*
X87580000Y-113287500D01*
X87580000Y-113287500D02*
X91420000Y-113287500D01*
X91420000Y-109887500D02*
X87580000Y-109887500D01*
X91420000Y-113287500D02*
X91420000Y-109887500D01*
%TO.C,D_FE1*%
X112522500Y-43750000D02*
X119522500Y-43750000D01*
X112522500Y-47250000D02*
X112522500Y-43750000D01*
X119522500Y-43750000D02*
X119522500Y-47250000D01*
X119522500Y-47250000D02*
X112522500Y-47250000D01*
%TO.C,Q_PWR1*%
X134572500Y-13450000D02*
X134572500Y-24550000D01*
X134572500Y-24550000D02*
X141572500Y-24550000D01*
X141572500Y-13450000D02*
X134572500Y-13450000D01*
X141572500Y-24550000D02*
X141572500Y-13450000D01*
%TO.C,U_KL1*%
X91800000Y-65865000D02*
X91800000Y-71265000D01*
X91800000Y-71265000D02*
X99200000Y-71265000D01*
X99200000Y-65865000D02*
X91800000Y-65865000D01*
X99200000Y-71265000D02*
X99200000Y-65865000D01*
%TO.C,H2*%
X184150000Y-4375000D02*
G75*
G02*
X177250000Y-4375000I-3450000J0D01*
G01*
X177250000Y-4375000D02*
G75*
G02*
X184150000Y-4375000I3450000J0D01*
G01*
%TO.C,R_FE13*%
X70020000Y-87770000D02*
X72980000Y-87770000D01*
X70020000Y-89230000D02*
X70020000Y-87770000D01*
X72980000Y-87770000D02*
X72980000Y-89230000D01*
X72980000Y-89230000D02*
X70020000Y-89230000D01*
%TO.C,R_ISO3*%
X31020000Y-48770000D02*
X33980000Y-48770000D01*
X31020000Y-50230000D02*
X31020000Y-48770000D01*
X33980000Y-48770000D02*
X33980000Y-50230000D01*
X33980000Y-50230000D02*
X31020000Y-50230000D01*
%TO.C,C_ISO1*%
X16520000Y-102770000D02*
X19480000Y-102770000D01*
X16520000Y-104230000D02*
X16520000Y-102770000D01*
X19480000Y-102770000D02*
X19480000Y-104230000D01*
X19480000Y-104230000D02*
X16520000Y-104230000D01*
%TO.C,C_MCU3*%
X33020000Y-65270000D02*
X35980000Y-65270000D01*
X33020000Y-66730000D02*
X33020000Y-65270000D01*
X35980000Y-65270000D02*
X35980000Y-66730000D01*
X35980000Y-66730000D02*
X33020000Y-66730000D01*
%TO.C,U_ISO6*%
X41070000Y-54650000D02*
X41070000Y-65450000D01*
X41070000Y-65450000D02*
X52930000Y-65450000D01*
X52930000Y-54650000D02*
X41070000Y-54650000D01*
X52930000Y-65450000D02*
X52930000Y-54650000D01*
%TO.C,R_KL2a1*%
X87520000Y-57770000D02*
X90480000Y-57770000D01*
X87520000Y-59230000D02*
X87520000Y-57770000D01*
X90480000Y-57770000D02*
X90480000Y-59230000D01*
X90480000Y-59230000D02*
X87520000Y-59230000D01*
%TO.C,C27*%
X54520000Y-38770000D02*
X57480000Y-38770000D01*
X54520000Y-40230000D02*
X54520000Y-38770000D01*
X57480000Y-38770000D02*
X57480000Y-40230000D01*
X57480000Y-40230000D02*
X54520000Y-40230000D01*
%TO.C,D_BN1*%
X147580000Y-78887500D02*
X147580000Y-82287500D01*
X147580000Y-82287500D02*
X151420000Y-82287500D01*
X151420000Y-78887500D02*
X147580000Y-78887500D01*
X151420000Y-82287500D02*
X151420000Y-78887500D01*
%TO.C,JP_ISO1*%
X35350000Y-51750000D02*
X35350000Y-54250000D01*
X35350000Y-51750000D02*
X38650000Y-51750000D01*
X38650000Y-54250000D02*
X35350000Y-54250000D01*
X38650000Y-54250000D02*
X38650000Y-51750000D01*
%TO.C,C73*%
X77020000Y-52770000D02*
X79980000Y-52770000D01*
X77020000Y-54230000D02*
X77020000Y-52770000D01*
X79980000Y-52770000D02*
X79980000Y-54230000D01*
X79980000Y-54230000D02*
X77020000Y-54230000D01*
%TO.C,U_CAN3*%
X82800000Y-92497500D02*
X82800000Y-101657500D01*
X82800000Y-101657500D02*
X90200000Y-101657500D01*
X90200000Y-92497500D02*
X82800000Y-92497500D01*
X90200000Y-101657500D02*
X90200000Y-92497500D01*
%TO.C,C_USB2*%
X12520000Y-96770000D02*
X15480000Y-96770000D01*
X12520000Y-98230000D02*
X12520000Y-96770000D01*
X15480000Y-96770000D02*
X15480000Y-98230000D01*
X15480000Y-98230000D02*
X12520000Y-98230000D01*
%TO.C,C81*%
X55020000Y-68770000D02*
X57980000Y-68770000D01*
X55020000Y-70230000D02*
X55020000Y-68770000D01*
X57980000Y-68770000D02*
X57980000Y-70230000D01*
X57980000Y-70230000D02*
X55020000Y-70230000D01*
%TO.C,U_ISO5*%
X41070000Y-40690000D02*
X41070000Y-51490000D01*
X41070000Y-51490000D02*
X52930000Y-51490000D01*
X52930000Y-40690000D02*
X41070000Y-40690000D01*
X52930000Y-51490000D02*
X52930000Y-40690000D01*
%TO.C,U_FE1*%
X103717500Y-20087500D02*
X103717500Y-24347500D01*
X103717500Y-24347500D02*
X107217500Y-24347500D01*
X107217500Y-20087500D02*
X103717500Y-20087500D01*
X107217500Y-24347500D02*
X107217500Y-20087500D01*
%TO.C,R_J18f1*%
X125020000Y-96770000D02*
X127980000Y-96770000D01*
X125020000Y-98230000D02*
X125020000Y-96770000D01*
X127980000Y-96770000D02*
X127980000Y-98230000D01*
X127980000Y-98230000D02*
X125020000Y-98230000D01*
%TO.C,C_MCU_A1*%
X30020000Y-114270000D02*
X32980000Y-114270000D01*
X30020000Y-115730000D02*
X30020000Y-114270000D01*
X32980000Y-114270000D02*
X32980000Y-115730000D01*
X32980000Y-115730000D02*
X30020000Y-115730000D01*
%TO.C,C58*%
X90020000Y-105770000D02*
X92980000Y-105770000D01*
X90020000Y-107230000D02*
X90020000Y-105770000D01*
X92980000Y-105770000D02*
X92980000Y-107230000D01*
X92980000Y-107230000D02*
X90020000Y-107230000D01*
%TO.C,R_FE10*%
X70520000Y-83770000D02*
X73480000Y-83770000D01*
X70520000Y-85230000D02*
X70520000Y-83770000D01*
X73480000Y-83770000D02*
X73480000Y-85230000D01*
X73480000Y-85230000D02*
X70520000Y-85230000D01*
%TO.C,C56*%
X77020000Y-58770000D02*
X79980000Y-58770000D01*
X77020000Y-60230000D02*
X77020000Y-58770000D01*
X79980000Y-58770000D02*
X79980000Y-60230000D01*
X79980000Y-60230000D02*
X77020000Y-60230000D01*
%TO.C,U_RM3*%
X106800000Y-82885000D02*
X106800000Y-93285000D01*
X106800000Y-93285000D02*
X114200000Y-93285000D01*
X114200000Y-82885000D02*
X106800000Y-82885000D01*
X114200000Y-93285000D02*
X114200000Y-82885000D01*
%TO.C,K_CAN3*%
X127750000Y-71650000D02*
X127750000Y-62350000D01*
X127750000Y-71650000D02*
X138250000Y-71650000D01*
X138250000Y-62350000D02*
X127750000Y-62350000D01*
X138250000Y-62350000D02*
X138250000Y-71650000D01*
%TO.C,C_RST1*%
X16020000Y-113270000D02*
X18980000Y-113270000D01*
X16020000Y-114730000D02*
X16020000Y-113270000D01*
X18980000Y-113270000D02*
X18980000Y-114730000D01*
X18980000Y-114730000D02*
X16020000Y-114730000D01*
%TO.C,C71*%
X62020000Y-75770000D02*
X64980000Y-75770000D01*
X62020000Y-77230000D02*
X62020000Y-75770000D01*
X64980000Y-75770000D02*
X64980000Y-77230000D01*
X64980000Y-77230000D02*
X62020000Y-77230000D01*
%TO.C,C_KL2b1*%
X78020000Y-61770000D02*
X80980000Y-61770000D01*
X78020000Y-63230000D02*
X78020000Y-61770000D01*
X80980000Y-61770000D02*
X80980000Y-63230000D01*
X80980000Y-63230000D02*
X78020000Y-63230000D01*
%TO.C,U_J18C1*%
X114497500Y-96800000D02*
X114497500Y-104200000D01*
X114497500Y-104200000D02*
X123657500Y-104200000D01*
X123657500Y-96800000D02*
X114497500Y-96800000D01*
X123657500Y-104200000D02*
X123657500Y-96800000D01*
%TO.C,R_J18t1*%
X113520000Y-123770000D02*
X116480000Y-123770000D01*
X113520000Y-125230000D02*
X113520000Y-123770000D01*
X116480000Y-123770000D02*
X116480000Y-125230000D01*
X116480000Y-125230000D02*
X113520000Y-125230000D01*
%TO.C,J_USB1*%
X-707500Y-21700000D02*
X-707500Y-32250000D01*
X9462500Y-21700000D02*
X-707500Y-21700000D01*
X9462500Y-21700000D02*
X9462500Y-32250000D01*
X9462500Y-32250000D02*
X-707500Y-32250000D01*
%TO.C,R23*%
X55020000Y-47770000D02*
X57980000Y-47770000D01*
X55020000Y-49230000D02*
X55020000Y-47770000D01*
X57980000Y-47770000D02*
X57980000Y-49230000D01*
X57980000Y-49230000D02*
X55020000Y-49230000D01*
%TO.C,U_PWR2*%
X135500500Y-6800000D02*
X140450500Y-6800000D01*
X140450500Y-11200000D01*
X135500500Y-11200000D01*
X135500500Y-6800000D01*
%TO.C,C23*%
X54520000Y-119770000D02*
X57480000Y-119770000D01*
X54520000Y-121230000D02*
X54520000Y-119770000D01*
X57480000Y-119770000D02*
X57480000Y-121230000D01*
X57480000Y-121230000D02*
X54520000Y-121230000D01*
%TO.C,U_CAN1*%
X91800000Y-72497500D02*
X91800000Y-81657500D01*
X91800000Y-81657500D02*
X99200000Y-81657500D01*
X99200000Y-72497500D02*
X91800000Y-72497500D01*
X99200000Y-81657500D02*
X99200000Y-72497500D01*
%TO.C,C_RM3*%
X125020000Y-84770000D02*
X127980000Y-84770000D01*
X125020000Y-86230000D02*
X125020000Y-84770000D01*
X127980000Y-84770000D02*
X127980000Y-86230000D01*
X127980000Y-86230000D02*
X125020000Y-86230000D01*
%TO.C,R_FE3*%
X96520000Y-25770000D02*
X99480000Y-25770000D01*
X96520000Y-27230000D02*
X96520000Y-25770000D01*
X99480000Y-25770000D02*
X99480000Y-27230000D01*
X99480000Y-27230000D02*
X96520000Y-27230000D01*
%TO.C,U_RM5*%
X115800000Y-84885000D02*
X115800000Y-95285000D01*
X115800000Y-95285000D02*
X123200000Y-95285000D01*
X123200000Y-84885000D02*
X115800000Y-84885000D01*
X123200000Y-95285000D02*
X123200000Y-84885000D01*
%TO.C,J_SWD1*%
X31799999Y-68775000D02*
X31799999Y-73225000D01*
X31799999Y-73225000D02*
X39199999Y-73225000D01*
X39199999Y-68775000D02*
X31799999Y-68775000D01*
X39199999Y-73225000D02*
X39199999Y-68775000D01*
%TO.C,K_GPT1*%
X119350000Y-50750000D02*
X119350000Y-61250000D01*
X119350000Y-50750000D02*
X128650000Y-50750000D01*
X128650000Y-61250000D02*
X119350000Y-61250000D01*
X128650000Y-61250000D02*
X128650000Y-50750000D01*
%TO.C,R_PWR6*%
X119020000Y-12770000D02*
X121980000Y-12770000D01*
X119020000Y-14230000D02*
X119020000Y-12770000D01*
X121980000Y-12770000D02*
X121980000Y-14230000D01*
X121980000Y-14230000D02*
X119020000Y-14230000D01*
%TO.C,D_ESD11*%
X153372500Y-59750000D02*
X160672500Y-59750000D01*
X153372500Y-64250000D02*
X153372500Y-59750000D01*
X160672500Y-59750000D02*
X160672500Y-64250000D01*
X160672500Y-64250000D02*
X153372500Y-64250000D01*
%TO.C,R_J18u1*%
X117520000Y-118770000D02*
X120480000Y-118770000D01*
X117520000Y-120230000D02*
X117520000Y-118770000D01*
X120480000Y-118770000D02*
X120480000Y-120230000D01*
X120480000Y-120230000D02*
X117520000Y-120230000D01*
%TO.C,L_PWR1*%
X148640000Y-6400000D02*
X162360000Y-6400000D01*
X148640000Y-19600000D02*
X148640000Y-6400000D01*
X162360000Y-6400000D02*
X162360000Y-19600000D01*
X162360000Y-19600000D02*
X148640000Y-19600000D01*
%TO.C,C_ISO7*%
X59020000Y-120770000D02*
X61980000Y-120770000D01*
X59020000Y-122230000D02*
X59020000Y-120770000D01*
X61980000Y-120770000D02*
X61980000Y-122230000D01*
X61980000Y-122230000D02*
X59020000Y-122230000D01*
%TO.C,R_J18g1*%
X120020000Y-108770000D02*
X122980000Y-108770000D01*
X120020000Y-110230000D02*
X120020000Y-108770000D01*
X122980000Y-108770000D02*
X122980000Y-110230000D01*
X122980000Y-110230000D02*
X120020000Y-110230000D01*
%TO.C,K_RM_F11*%
X107750000Y-61650000D02*
X107750000Y-52350000D01*
X107750000Y-61650000D02*
X118250000Y-61650000D01*
X118250000Y-52350000D02*
X107750000Y-52350000D01*
X118250000Y-52350000D02*
X118250000Y-61650000D01*
%TO.C,C88*%
X134020000Y-29770000D02*
X136980000Y-29770000D01*
X134020000Y-31230000D02*
X134020000Y-29770000D01*
X136980000Y-29770000D02*
X136980000Y-31230000D01*
X136980000Y-31230000D02*
X134020000Y-31230000D01*
%TO.C,C_J18a1*%
X90020000Y-102770000D02*
X92980000Y-102770000D01*
X90020000Y-104230000D02*
X90020000Y-102770000D01*
X92980000Y-102770000D02*
X92980000Y-104230000D01*
X92980000Y-104230000D02*
X90020000Y-104230000D01*
%TO.C,R_KL1d1*%
X87020000Y-39770000D02*
X89980000Y-39770000D01*
X87020000Y-41230000D02*
X87020000Y-39770000D01*
X89980000Y-39770000D02*
X89980000Y-41230000D01*
X89980000Y-41230000D02*
X87020000Y-41230000D01*
%TO.C,U_RM_SW1*%
X120462500Y-43750000D02*
X120462500Y-49250000D01*
X120462500Y-49250000D02*
X128162500Y-49250000D01*
X128162500Y-43750000D02*
X120462500Y-43750000D01*
X128162500Y-49250000D02*
X128162500Y-43750000D01*
%TO.C,U_ISO1*%
X8712500Y-85450000D02*
X8712500Y-89550000D01*
X8712500Y-89550000D02*
X12112500Y-89550000D01*
X12112500Y-85450000D02*
X8712500Y-85450000D01*
X12112500Y-89550000D02*
X12112500Y-85450000D01*
%TO.C,R21*%
X78020000Y-108770000D02*
X80980000Y-108770000D01*
X78020000Y-110230000D02*
X78020000Y-108770000D01*
X80980000Y-108770000D02*
X80980000Y-110230000D01*
X80980000Y-110230000D02*
X78020000Y-110230000D01*
%TO.C,D_USB3*%
X8372500Y-102750000D02*
X15672500Y-102750000D01*
X8372500Y-107250000D02*
X8372500Y-102750000D01*
X15672500Y-102750000D02*
X15672500Y-107250000D01*
X15672500Y-107250000D02*
X8372500Y-107250000D01*
%TO.C,C22*%
X8520000Y-33770000D02*
X11480000Y-33770000D01*
X8520000Y-35230000D02*
X8520000Y-33770000D01*
X11480000Y-33770000D02*
X11480000Y-35230000D01*
X11480000Y-35230000D02*
X8520000Y-35230000D01*
%TO.C,C_Y1*%
X44000000Y-138355000D02*
X50000000Y-138355000D01*
X44000000Y-142255000D02*
X44000000Y-138355000D01*
X50000000Y-138355000D02*
X50000000Y-142255000D01*
X50000000Y-142255000D02*
X44000000Y-142255000D01*
%TO.C,L_ISO1*%
X8750000Y-90750000D02*
X8750000Y-95250000D01*
X8750000Y-95250000D02*
X13250000Y-95250000D01*
X13250000Y-90750000D02*
X8750000Y-90750000D01*
X13250000Y-95250000D02*
X13250000Y-90750000D01*
%TO.C,U_RM2*%
X103350000Y-43462500D02*
X103350000Y-51162500D01*
X103350000Y-51162500D02*
X111650000Y-51162500D01*
X111650000Y-43462500D02*
X103350000Y-43462500D01*
X111650000Y-51162500D02*
X111650000Y-43462500D01*
%TO.C,J_PWR1*%
X169200000Y-126200000D02*
X169800000Y-126200000D01*
X169200000Y-129800000D02*
X169200000Y-126200000D01*
X169800000Y-123000000D02*
X172200000Y-123000000D01*
X169800000Y-126200000D02*
X169800000Y-123000000D01*
X169800000Y-129800000D02*
X169200000Y-129800000D01*
X169800000Y-133000000D02*
X169800000Y-129800000D01*
X172200000Y-121500000D02*
X175800000Y-121500000D01*
X172200000Y-123000000D02*
X172200000Y-121500000D01*
X175800000Y-121500000D02*
X175800000Y-123000000D01*
X175800000Y-123000000D02*
X185200000Y-123000000D01*
X185200000Y-123000000D02*
X185200000Y-133000000D01*
X185200000Y-133000000D02*
X169800000Y-133000000D01*
%TO.C,R_KL1b1*%
X97020000Y-38770000D02*
X99980000Y-38770000D01*
X97020000Y-40230000D02*
X97020000Y-38770000D01*
X99980000Y-38770000D02*
X99980000Y-40230000D01*
X99980000Y-40230000D02*
X97020000Y-40230000D01*
%TO.C,R_FE11*%
X65020000Y-81770000D02*
X67980000Y-81770000D01*
X65020000Y-83230000D02*
X65020000Y-81770000D01*
X67980000Y-81770000D02*
X67980000Y-83230000D01*
X67980000Y-83230000D02*
X65020000Y-83230000D01*
%TO.C,T1*%
X40600000Y-14025000D02*
X53400000Y-14025000D01*
X53400000Y-23625000D01*
X40600000Y-23625000D01*
X40600000Y-14025000D01*
%TO.C,C_MCU_B1*%
X22800000Y-105520000D02*
X26200000Y-105520000D01*
X22800000Y-107480000D02*
X22800000Y-105520000D01*
X26200000Y-105520000D02*
X26200000Y-107480000D01*
X26200000Y-107480000D02*
X22800000Y-107480000D01*
%TO.C,U_CAN2*%
X91800000Y-92497500D02*
X91800000Y-101657500D01*
X91800000Y-101657500D02*
X99200000Y-101657500D01*
X99200000Y-92497500D02*
X91800000Y-92497500D01*
X99200000Y-101657500D02*
X99200000Y-92497500D01*
%TO.C,C_MCU6*%
X26020000Y-64270000D02*
X28980000Y-64270000D01*
X26020000Y-65730000D02*
X26020000Y-64270000D01*
X28980000Y-64270000D02*
X28980000Y-65730000D01*
X28980000Y-65730000D02*
X26020000Y-65730000D01*
%TO.C,C_FE8*%
X120700000Y-28400000D02*
X125300000Y-28400000D01*
X120700000Y-31600000D02*
X120700000Y-28400000D01*
X125300000Y-28400000D02*
X125300000Y-31600000D01*
X125300000Y-31600000D02*
X120700000Y-31600000D01*
%TO.C,R_FE6*%
X105680000Y-103580000D02*
X113320000Y-103580000D01*
X105680000Y-107420000D02*
X105680000Y-103580000D01*
X113320000Y-103580000D02*
X113320000Y-107420000D01*
X113320000Y-107420000D02*
X105680000Y-107420000D01*
%TO.C,U_FE2*%
X64800000Y-41497500D02*
X64800000Y-50657500D01*
X64800000Y-50657500D02*
X72200000Y-50657500D01*
X72200000Y-41497500D02*
X64800000Y-41497500D01*
X72200000Y-50657500D02*
X72200000Y-41497500D01*
%TO.C,R_J18n1*%
X125020000Y-108770000D02*
X127980000Y-108770000D01*
X125020000Y-110230000D02*
X125020000Y-108770000D01*
X127980000Y-108770000D02*
X127980000Y-110230000D01*
X127980000Y-110230000D02*
X125020000Y-110230000D01*
%TO.C,U1*%
X16350000Y-76850000D02*
X16350000Y-86000000D01*
X16350000Y-95150000D02*
X16350000Y-86000000D01*
X17750000Y-75750000D02*
X17750000Y-76850000D01*
X17750000Y-76850000D02*
X16350000Y-76850000D01*
X17750000Y-95150000D02*
X16350000Y-95150000D01*
X17750000Y-96250000D02*
X17750000Y-95150000D01*
X18850000Y-74350000D02*
X18850000Y-75750000D01*
X18850000Y-75750000D02*
X17750000Y-75750000D01*
X18850000Y-96250000D02*
X17750000Y-96250000D01*
X18850000Y-97650000D02*
X18850000Y-96250000D01*
X28000000Y-74350000D02*
X18850000Y-74350000D01*
X28000000Y-74350000D02*
X37150000Y-74350000D01*
X28000000Y-97650000D02*
X18850000Y-97650000D01*
X28000000Y-97650000D02*
X37150000Y-97650000D01*
X37150000Y-74350000D02*
X37150000Y-75750000D01*
X37150000Y-75750000D02*
X38250000Y-75750000D01*
X37150000Y-96250000D02*
X38250000Y-96250000D01*
X37150000Y-97650000D02*
X37150000Y-96250000D01*
X38250000Y-75750000D02*
X38250000Y-76850000D01*
X38250000Y-76850000D02*
X39650000Y-76850000D01*
X38250000Y-95150000D02*
X39650000Y-95150000D01*
X38250000Y-96250000D02*
X38250000Y-95150000D01*
X39650000Y-76850000D02*
X39650000Y-86000000D01*
X39650000Y-95150000D02*
X39650000Y-86000000D01*
%TO.C,U_ISO4*%
X41070000Y-26729999D02*
X41070000Y-37529999D01*
X41070000Y-37529999D02*
X52930000Y-37529999D01*
X52930000Y-26729999D02*
X41070000Y-26729999D01*
X52930000Y-37529999D02*
X52930000Y-26729999D01*
%TO.C,Q_KL2*%
X77080000Y-67887500D02*
X77080000Y-71287500D01*
X77080000Y-71287500D02*
X80920000Y-71287500D01*
X80920000Y-67887500D02*
X77080000Y-67887500D01*
X80920000Y-71287500D02*
X80920000Y-67887500D01*
%TO.C,R47*%
X56020000Y-74770000D02*
X58980000Y-74770000D01*
X56020000Y-76230000D02*
X56020000Y-74770000D01*
X58980000Y-74770000D02*
X58980000Y-76230000D01*
X58980000Y-76230000D02*
X56020000Y-76230000D01*
%TO.C,C18*%
X12520000Y-28770000D02*
X15480000Y-28770000D01*
X12520000Y-30230000D02*
X12520000Y-28770000D01*
X15480000Y-28770000D02*
X15480000Y-30230000D01*
X15480000Y-30230000D02*
X12520000Y-30230000D01*
%TO.C,C66*%
X60020000Y-44770000D02*
X62980000Y-44770000D01*
X60020000Y-46230000D02*
X60020000Y-44770000D01*
X62980000Y-44770000D02*
X62980000Y-46230000D01*
X62980000Y-46230000D02*
X60020000Y-46230000D01*
%TO.C,R_FE4*%
X97020000Y-16770000D02*
X99980000Y-16770000D01*
X97020000Y-18230000D02*
X97020000Y-16770000D01*
X99980000Y-16770000D02*
X99980000Y-18230000D01*
X99980000Y-18230000D02*
X97020000Y-18230000D01*
%TO.C,D_ESD8*%
X146372500Y-41750000D02*
X153672500Y-41750000D01*
X146372500Y-46250000D02*
X146372500Y-41750000D01*
X153672500Y-41750000D02*
X153672500Y-46250000D01*
X153672500Y-46250000D02*
X146372500Y-46250000D01*
%TO.C,R_RST1*%
X30020000Y-122270000D02*
X32980000Y-122270000D01*
X30020000Y-123730000D02*
X30020000Y-122270000D01*
X32980000Y-122270000D02*
X32980000Y-123730000D01*
X32980000Y-123730000D02*
X30020000Y-123730000D01*
%TO.C,C31*%
X62520000Y-34770000D02*
X65480000Y-34770000D01*
X62520000Y-36230000D02*
X62520000Y-34770000D01*
X65480000Y-34770000D02*
X65480000Y-36230000D01*
X65480000Y-36230000D02*
X62520000Y-36230000D01*
%TO.C,C_USB1*%
X8800000Y-99520000D02*
X12200000Y-99520000D01*
X8800000Y-101480000D02*
X8800000Y-99520000D01*
X12200000Y-99520000D02*
X12200000Y-101480000D01*
X12200000Y-101480000D02*
X8800000Y-101480000D01*
%TO.C,R_J18l1*%
X87020000Y-114770000D02*
X89980000Y-114770000D01*
X87020000Y-116230000D02*
X87020000Y-114770000D01*
X89980000Y-114770000D02*
X89980000Y-116230000D01*
X89980000Y-116230000D02*
X87020000Y-116230000D01*
%TO.C,U_J18A1*%
X103800000Y-116865000D02*
X103800000Y-122265000D01*
X103800000Y-122265000D02*
X111200000Y-122265000D01*
X111200000Y-116865000D02*
X103800000Y-116865000D01*
X111200000Y-122265000D02*
X111200000Y-116865000D01*
%TO.C,R_J18q1*%
X124520000Y-90770000D02*
X127480000Y-90770000D01*
X124520000Y-92230000D02*
X124520000Y-90770000D01*
X127480000Y-90770000D02*
X127480000Y-92230000D01*
X127480000Y-92230000D02*
X124520000Y-92230000D01*
%TO.C,D_ESD3*%
X152372500Y-86750000D02*
X159672500Y-86750000D01*
X152372500Y-91250000D02*
X152372500Y-86750000D01*
X159672500Y-86750000D02*
X159672500Y-91250000D01*
X159672500Y-91250000D02*
X152372500Y-91250000D01*
%TO.C,C32*%
X8520000Y-108770000D02*
X11480000Y-108770000D01*
X8520000Y-110230000D02*
X8520000Y-108770000D01*
X11480000Y-108770000D02*
X11480000Y-110230000D01*
X11480000Y-110230000D02*
X8520000Y-110230000D01*
%TO.C,C_KL1b1*%
X87020000Y-51770000D02*
X89980000Y-51770000D01*
X87020000Y-53230000D02*
X87020000Y-51770000D01*
X89980000Y-51770000D02*
X89980000Y-53230000D01*
X89980000Y-53230000D02*
X87020000Y-53230000D01*
%TO.C,R17*%
X83020000Y-108770000D02*
X85980000Y-108770000D01*
X83020000Y-110230000D02*
X83020000Y-108770000D01*
X85980000Y-108770000D02*
X85980000Y-110230000D01*
X85980000Y-110230000D02*
X83020000Y-110230000D01*
%TO.C,R_KL2f1*%
X76520000Y-72770000D02*
X79480000Y-72770000D01*
X76520000Y-74230000D02*
X76520000Y-72770000D01*
X79480000Y-72770000D02*
X79480000Y-74230000D01*
X79480000Y-74230000D02*
X76520000Y-74230000D01*
%TO.C,D_BN4*%
X145372500Y-59750000D02*
X152672500Y-59750000D01*
X145372500Y-64250000D02*
X145372500Y-59750000D01*
X152672500Y-59750000D02*
X152672500Y-64250000D01*
X152672500Y-64250000D02*
X145372500Y-64250000D01*
%TO.C,C_ISO5*%
X59020000Y-25770000D02*
X61980000Y-25770000D01*
X59020000Y-27230000D02*
X59020000Y-25770000D01*
X61980000Y-25770000D02*
X61980000Y-27230000D01*
X61980000Y-27230000D02*
X59020000Y-27230000D01*
%TO.C,R_KL1e1*%
X76520000Y-46770000D02*
X79480000Y-46770000D01*
X76520000Y-48230000D02*
X76520000Y-46770000D01*
X79480000Y-46770000D02*
X79480000Y-48230000D01*
X79480000Y-48230000D02*
X76520000Y-48230000D01*
%TO.C,FB1*%
X23520000Y-71770000D02*
X26480000Y-71770000D01*
X23520000Y-73230000D02*
X23520000Y-71770000D01*
X26480000Y-71770000D02*
X26480000Y-73230000D01*
X26480000Y-73230000D02*
X23520000Y-73230000D01*
%TO.C,R_KL3c1*%
X82020000Y-114770000D02*
X84980000Y-114770000D01*
X82020000Y-116230000D02*
X82020000Y-114770000D01*
X84980000Y-114770000D02*
X84980000Y-116230000D01*
X84980000Y-116230000D02*
X82020000Y-116230000D01*
%TO.C,R24*%
X97020000Y-41770000D02*
X99980000Y-41770000D01*
X97020000Y-43230000D02*
X97020000Y-41770000D01*
X99980000Y-41770000D02*
X99980000Y-43230000D01*
X99980000Y-43230000D02*
X97020000Y-43230000D01*
%TO.C,C_ISO9*%
X11300000Y-71520000D02*
X14700000Y-71520000D01*
X11300000Y-73480000D02*
X11300000Y-71520000D01*
X14700000Y-71520000D02*
X14700000Y-73480000D01*
X14700000Y-73480000D02*
X11300000Y-73480000D01*
%TO.C,C59*%
X97020000Y-108770000D02*
X99980000Y-108770000D01*
X97020000Y-110230000D02*
X97020000Y-108770000D01*
X99980000Y-108770000D02*
X99980000Y-110230000D01*
X99980000Y-110230000D02*
X97020000Y-110230000D01*
%TO.C,C_J18c1*%
X109020000Y-123770000D02*
X111980000Y-123770000D01*
X109020000Y-125230000D02*
X109020000Y-123770000D01*
X111980000Y-123770000D02*
X111980000Y-125230000D01*
X111980000Y-125230000D02*
X109020000Y-125230000D01*
%TO.C,FID2*%
X176950000Y-144280000D02*
G75*
G02*
X174450000Y-144280000I-1250000J0D01*
G01*
X174450000Y-144280000D02*
G75*
G02*
X176950000Y-144280000I1250000J0D01*
G01*
%TO.C,C_PWR9*%
X131525000Y-22025000D02*
X134485000Y-22025000D01*
X134485000Y-23485000D01*
X131525000Y-23485000D01*
X131525000Y-22025000D01*
%TO.C,K_RM3*%
X129750000Y-51650000D02*
X129750000Y-42350000D01*
X129750000Y-51650000D02*
X140250000Y-51650000D01*
X140250000Y-42350000D02*
X129750000Y-42350000D01*
X140250000Y-42350000D02*
X140250000Y-51650000D01*
%TO.C,C21*%
X62520000Y-31770000D02*
X65480000Y-31770000D01*
X62520000Y-33230000D02*
X62520000Y-31770000D01*
X65480000Y-31770000D02*
X65480000Y-33230000D01*
X65480000Y-33230000D02*
X62520000Y-33230000D01*
%TO.C,C65*%
X60020000Y-47770000D02*
X62980000Y-47770000D01*
X60020000Y-49230000D02*
X60020000Y-47770000D01*
X62980000Y-47770000D02*
X62980000Y-49230000D01*
X62980000Y-49230000D02*
X60020000Y-49230000D01*
%TO.C,JP_BOOT1*%
X29850000Y-105250000D02*
X29850000Y-107750000D01*
X29850000Y-105250000D02*
X33150000Y-105250000D01*
X33150000Y-107750000D02*
X29850000Y-107750000D01*
X33150000Y-107750000D02*
X33150000Y-105250000D01*
%TO.C,R_LED2*%
X8520000Y-57770000D02*
X11480000Y-57770000D01*
X8520000Y-59230000D02*
X8520000Y-57770000D01*
X11480000Y-57770000D02*
X11480000Y-59230000D01*
X11480000Y-59230000D02*
X8520000Y-59230000D01*
%TO.C,C_MCU10*%
X19020000Y-63270000D02*
X21980000Y-63270000D01*
X19020000Y-64730000D02*
X19020000Y-63270000D01*
X21980000Y-63270000D02*
X21980000Y-64730000D01*
X21980000Y-64730000D02*
X19020000Y-64730000D01*
%TO.C,D_ESD15*%
X149372500Y-47750000D02*
X156672500Y-47750000D01*
X149372500Y-52250000D02*
X149372500Y-47750000D01*
X156672500Y-47750000D02*
X156672500Y-52250000D01*
X156672500Y-52250000D02*
X149372500Y-52250000D01*
%TO.C,U_FE4*%
X66865000Y-71800000D02*
X66865000Y-79200000D01*
X66865000Y-79200000D02*
X72265000Y-79200000D01*
X72265000Y-71800000D02*
X66865000Y-71800000D01*
X72265000Y-79200000D02*
X72265000Y-71800000D01*
%TO.C,LED_H1*%
X27540000Y-71770000D02*
X30500000Y-71770000D01*
X27540000Y-73230000D02*
X27540000Y-71770000D01*
X30500000Y-71770000D02*
X30500000Y-73230000D01*
X30500000Y-73230000D02*
X27540000Y-73230000D01*
%TO.C,K_GPT2*%
X117350000Y-62750000D02*
X117350000Y-73250000D01*
X117350000Y-62750000D02*
X126650000Y-62750000D01*
X126650000Y-73250000D02*
X117350000Y-73250000D01*
X126650000Y-73250000D02*
X126650000Y-62750000D01*
%TO.C,C_FE4*%
X107020000Y-16770000D02*
X109980000Y-16770000D01*
X107020000Y-18230000D02*
X107020000Y-16770000D01*
X109980000Y-16770000D02*
X109980000Y-18230000D01*
X109980000Y-18230000D02*
X107020000Y-18230000D01*
%TO.C,C_PWR2*%
X103350000Y-9500000D02*
X103350000Y-12500000D01*
X103350000Y-12500000D02*
X105000000Y-12500000D01*
X105000000Y-7650000D02*
X105000000Y-9500000D01*
X105000000Y-7650000D02*
X106150000Y-6500000D01*
X105000000Y-9500000D02*
X103350000Y-9500000D01*
X105000000Y-12500000D02*
X105000000Y-14350000D01*
X105000000Y-14350000D02*
X106150000Y-15500000D01*
X106150000Y-6500000D02*
X114000000Y-6500000D01*
X106150000Y-15500000D02*
X114000000Y-15500000D01*
X114000000Y-6500000D02*
X114000000Y-9500000D01*
X114000000Y-9500000D02*
X115650000Y-9500000D01*
X114000000Y-12500000D02*
X114000000Y-15500000D01*
X115650000Y-9500000D02*
X115650000Y-12500000D01*
X115650000Y-12500000D02*
X114000000Y-12500000D01*
%TO.C,R_PWR7*%
X144520000Y-15770000D02*
X147480000Y-15770000D01*
X144520000Y-17230000D02*
X144520000Y-15770000D01*
X147480000Y-15770000D02*
X147480000Y-17230000D01*
X147480000Y-17230000D02*
X144520000Y-17230000D01*
%TO.C,R28*%
X81020000Y-43770000D02*
X83980000Y-43770000D01*
X81020000Y-45230000D02*
X81020000Y-43770000D01*
X83980000Y-43770000D02*
X83980000Y-45230000D01*
X83980000Y-45230000D02*
X81020000Y-45230000D01*
%TO.C,C24*%
X12520000Y-31770000D02*
X15480000Y-31770000D01*
X12520000Y-33230000D02*
X12520000Y-31770000D01*
X15480000Y-31770000D02*
X15480000Y-33230000D01*
X15480000Y-33230000D02*
X12520000Y-33230000D01*
%TO.C,C_RM4*%
X115020000Y-105770000D02*
X117980000Y-105770000D01*
X115020000Y-107230000D02*
X115020000Y-105770000D01*
X117980000Y-105770000D02*
X117980000Y-107230000D01*
X117980000Y-107230000D02*
X115020000Y-107230000D01*
%TO.C,FID1*%
X12552500Y-4375000D02*
G75*
G02*
X10052500Y-4375000I-1250000J0D01*
G01*
X10052500Y-4375000D02*
G75*
G02*
X12552500Y-4375000I1250000J0D01*
G01*
%TO.C,R_PWR5*%
X144520000Y-12770000D02*
X147480000Y-12770000D01*
X144520000Y-14230000D02*
X144520000Y-12770000D01*
X147480000Y-12770000D02*
X147480000Y-14230000D01*
X147480000Y-14230000D02*
X144520000Y-14230000D01*
%TO.C,C_MCU_B2*%
X10800000Y-81520000D02*
X14200000Y-81520000D01*
X10800000Y-83480000D02*
X10800000Y-81520000D01*
X14200000Y-81520000D02*
X14200000Y-83480000D01*
X14200000Y-83480000D02*
X10800000Y-83480000D01*
%TO.C,D_ISO1*%
X54522500Y-28750000D02*
X61522500Y-28750000D01*
X54522500Y-32250000D02*
X54522500Y-28750000D01*
X61522500Y-28750000D02*
X61522500Y-32250000D01*
X61522500Y-32250000D02*
X54522500Y-32250000D01*
%TO.C,R_J18k1*%
X117520000Y-115770000D02*
X120480000Y-115770000D01*
X117520000Y-117230000D02*
X117520000Y-115770000D01*
X120480000Y-115770000D02*
X120480000Y-117230000D01*
X120480000Y-117230000D02*
X117520000Y-117230000D01*
%TO.C,Q_KL1*%
X82080000Y-55887500D02*
X82080000Y-59287500D01*
X82080000Y-59287500D02*
X85920000Y-59287500D01*
X85920000Y-55887500D02*
X82080000Y-55887500D01*
X85920000Y-59287500D02*
X85920000Y-55887500D01*
%TO.C,C82*%
X56020000Y-71770000D02*
X58980000Y-71770000D01*
X56020000Y-73230000D02*
X56020000Y-71770000D01*
X58980000Y-71770000D02*
X58980000Y-73230000D01*
X58980000Y-73230000D02*
X56020000Y-73230000D01*
%TO.C,C_KL2a1*%
X84020000Y-88770000D02*
X86980000Y-88770000D01*
X84020000Y-90230000D02*
X84020000Y-88770000D01*
X86980000Y-88770000D02*
X86980000Y-90230000D01*
X86980000Y-90230000D02*
X84020000Y-90230000D01*
%TO.C,C_MCU7*%
X23020000Y-110270000D02*
X25980000Y-110270000D01*
X23020000Y-111730000D02*
X23020000Y-110270000D01*
X25980000Y-110270000D02*
X25980000Y-111730000D01*
X25980000Y-111730000D02*
X23020000Y-111730000D01*
%TO.C,R_J18s1*%
X126520000Y-111770000D02*
X129480000Y-111770000D01*
X126520000Y-113230000D02*
X126520000Y-111770000D01*
X129480000Y-111770000D02*
X129480000Y-113230000D01*
X129480000Y-113230000D02*
X126520000Y-113230000D01*
%TO.C,C_MCU_A3*%
X23020000Y-114270000D02*
X25980000Y-114270000D01*
X23020000Y-115730000D02*
X23020000Y-114270000D01*
X25980000Y-114270000D02*
X25980000Y-115730000D01*
X25980000Y-115730000D02*
X23020000Y-115730000D01*
%TO.C,U_KL3*%
X79800000Y-78865000D02*
X79800000Y-84265000D01*
X79800000Y-84265000D02*
X87200000Y-84265000D01*
X87200000Y-78865000D02*
X79800000Y-78865000D01*
X87200000Y-84265000D02*
X87200000Y-78865000D01*
%TO.C,R_KL3b1*%
X78020000Y-111770000D02*
X80980000Y-111770000D01*
X78020000Y-113230000D02*
X78020000Y-111770000D01*
X80980000Y-111770000D02*
X80980000Y-113230000D01*
X80980000Y-113230000D02*
X78020000Y-113230000D01*
%TO.C,C69*%
X86020000Y-45770000D02*
X88980000Y-45770000D01*
X86020000Y-47230000D02*
X86020000Y-45770000D01*
X88980000Y-45770000D02*
X88980000Y-47230000D01*
X88980000Y-47230000D02*
X86020000Y-47230000D01*
%TO.C,K_RM1*%
X129750000Y-91650000D02*
X129750000Y-82350000D01*
X129750000Y-91650000D02*
X140250000Y-91650000D01*
X140250000Y-82350000D02*
X129750000Y-82350000D01*
X140250000Y-82350000D02*
X140250000Y-91650000D01*
%TO.C,C_FE9*%
X136200000Y-35400000D02*
X140800000Y-35400000D01*
X136200000Y-38600000D02*
X136200000Y-35400000D01*
X140800000Y-35400000D02*
X140800000Y-38600000D01*
X140800000Y-38600000D02*
X136200000Y-38600000D01*
%TO.C,C_OSC2*%
X33020000Y-57270000D02*
X35980000Y-57270000D01*
X33020000Y-58730000D02*
X33020000Y-57270000D01*
X35980000Y-57270000D02*
X35980000Y-58730000D01*
X35980000Y-58730000D02*
X33020000Y-58730000D01*
%TO.C,R19*%
X97020000Y-114770000D02*
X99980000Y-114770000D01*
X97020000Y-116230000D02*
X97020000Y-114770000D01*
X99980000Y-114770000D02*
X99980000Y-116230000D01*
X99980000Y-116230000D02*
X97020000Y-116230000D01*
%TO.C,U_KL2*%
X82800000Y-70865000D02*
X82800000Y-76265000D01*
X82800000Y-76265000D02*
X90200000Y-76265000D01*
X90200000Y-70865000D02*
X82800000Y-70865000D01*
X90200000Y-76265000D02*
X90200000Y-70865000D01*
%TO.C,C_ISO2*%
X11300000Y-77520000D02*
X14700000Y-77520000D01*
X11300000Y-79480000D02*
X11300000Y-77520000D01*
X14700000Y-77520000D02*
X14700000Y-79480000D01*
X14700000Y-79480000D02*
X11300000Y-79480000D01*
%TO.C,C28*%
X8520000Y-96770000D02*
X11480000Y-96770000D01*
X8520000Y-98230000D02*
X8520000Y-96770000D01*
X11480000Y-96770000D02*
X11480000Y-98230000D01*
X11480000Y-98230000D02*
X8520000Y-98230000D01*
%TO.C,X_SW1*%
X59000000Y-64300000D02*
X59000000Y-67700000D01*
X59000000Y-67700000D02*
X63000000Y-67700000D01*
X63000000Y-64300000D02*
X59000000Y-64300000D01*
X63000000Y-67700000D02*
X63000000Y-64300000D01*
%TO.C,R_USB2*%
X16520000Y-28770000D02*
X19480000Y-28770000D01*
X16520000Y-30230000D02*
X16520000Y-28770000D01*
X19480000Y-28770000D02*
X19480000Y-30230000D01*
X19480000Y-30230000D02*
X16520000Y-30230000D01*
%TO.C,C64*%
X80020000Y-105770000D02*
X82980000Y-105770000D01*
X80020000Y-107230000D02*
X80020000Y-105770000D01*
X82980000Y-105770000D02*
X82980000Y-107230000D01*
X82980000Y-107230000D02*
X80020000Y-107230000D01*
%TO.C,R_KL2e1*%
X76520000Y-43770000D02*
X79480000Y-43770000D01*
X76520000Y-45230000D02*
X76520000Y-43770000D01*
X79480000Y-43770000D02*
X79480000Y-45230000D01*
X79480000Y-45230000D02*
X76520000Y-45230000D01*
%TO.C,U_ISO10*%
X41070000Y-110490000D02*
X41070000Y-121290000D01*
X41070000Y-121290000D02*
X52930000Y-121290000D01*
X52930000Y-110490000D02*
X41070000Y-110490000D01*
X52930000Y-121290000D02*
X52930000Y-110490000D01*
%TO.C,R_J18o1*%
X84520000Y-85770000D02*
X87480000Y-85770000D01*
X84520000Y-87230000D02*
X84520000Y-85770000D01*
X87480000Y-85770000D02*
X87480000Y-87230000D01*
X87480000Y-87230000D02*
X84520000Y-87230000D01*
%TO.C,X_CAN2*%
X61000000Y-71300000D02*
X61000000Y-74700000D01*
X61000000Y-74700000D02*
X65000000Y-74700000D01*
X65000000Y-71300000D02*
X61000000Y-71300000D01*
X65000000Y-74700000D02*
X65000000Y-71300000D01*
%TO.C,C26*%
X8520000Y-40770000D02*
X11480000Y-40770000D01*
X8520000Y-42230000D02*
X8520000Y-40770000D01*
X11480000Y-40770000D02*
X11480000Y-42230000D01*
X11480000Y-42230000D02*
X8520000Y-42230000D01*
%TO.C,U_ISO8*%
X41070000Y-82570000D02*
X41070000Y-93370000D01*
X41070000Y-93370000D02*
X52930000Y-93370000D01*
X52930000Y-82570000D02*
X41070000Y-82570000D01*
X52930000Y-93370000D02*
X52930000Y-82570000D01*
%TO.C,D_ESD1*%
X152372500Y-65750000D02*
X159672500Y-65750000D01*
X152372500Y-70250000D02*
X152372500Y-65750000D01*
X159672500Y-65750000D02*
X159672500Y-70250000D01*
X159672500Y-70250000D02*
X152372500Y-70250000D01*
%TO.C,R_RM2*%
X138020000Y-102770000D02*
X140980000Y-102770000D01*
X138020000Y-104230000D02*
X138020000Y-102770000D01*
X140980000Y-102770000D02*
X140980000Y-104230000D01*
X140980000Y-104230000D02*
X138020000Y-104230000D01*
%TO.C,C_FE2*%
X127200000Y-28400000D02*
X131800000Y-28400000D01*
X127200000Y-31600000D02*
X127200000Y-28400000D01*
X131800000Y-28400000D02*
X131800000Y-31600000D01*
X131800000Y-31600000D02*
X127200000Y-31600000D01*
%TO.C,C25*%
X58520000Y-111770000D02*
X61480000Y-111770000D01*
X58520000Y-113230000D02*
X58520000Y-111770000D01*
X61480000Y-111770000D02*
X61480000Y-113230000D01*
X61480000Y-113230000D02*
X58520000Y-113230000D01*
%TO.C,K_RM_F12*%
X105750000Y-71650000D02*
X105750000Y-62350000D01*
X105750000Y-71650000D02*
X116250000Y-71650000D01*
X116250000Y-62350000D02*
X105750000Y-62350000D01*
X116250000Y-62350000D02*
X116250000Y-71650000D01*
%TO.C,R20*%
X92020000Y-114770000D02*
X94980000Y-114770000D01*
X92020000Y-116230000D02*
X92020000Y-114770000D01*
X94980000Y-114770000D02*
X94980000Y-116230000D01*
X94980000Y-116230000D02*
X92020000Y-116230000D01*
%TO.C,R_RM4*%
X138520000Y-92770000D02*
X141480000Y-92770000D01*
X138520000Y-94230000D02*
X138520000Y-92770000D01*
X141480000Y-92770000D02*
X141480000Y-94230000D01*
X141480000Y-94230000D02*
X138520000Y-94230000D01*
%TO.C,R_PWR4*%
X144520000Y-6770000D02*
X147480000Y-6770000D01*
X144520000Y-8230000D02*
X144520000Y-6770000D01*
X147480000Y-6770000D02*
X147480000Y-8230000D01*
X147480000Y-8230000D02*
X144520000Y-8230000D01*
%TO.C,C_VBAT1*%
X12020000Y-64270000D02*
X14980000Y-64270000D01*
X12020000Y-65730000D02*
X12020000Y-64270000D01*
X14980000Y-64270000D02*
X14980000Y-65730000D01*
X14980000Y-65730000D02*
X12020000Y-65730000D01*
%TO.C,R_FE5*%
X64520000Y-38770000D02*
X67480000Y-38770000D01*
X64520000Y-40230000D02*
X64520000Y-38770000D01*
X67480000Y-38770000D02*
X67480000Y-40230000D01*
X67480000Y-40230000D02*
X64520000Y-40230000D01*
%TO.C,R_FE12*%
X66520000Y-84770000D02*
X69480000Y-84770000D01*
X66520000Y-86230000D02*
X66520000Y-84770000D01*
X69480000Y-84770000D02*
X69480000Y-86230000D01*
X69480000Y-86230000D02*
X66520000Y-86230000D01*
%TO.C,R22*%
X83020000Y-111770000D02*
X85980000Y-111770000D01*
X83020000Y-113230000D02*
X83020000Y-111770000D01*
X85980000Y-111770000D02*
X85980000Y-113230000D01*
X85980000Y-113230000D02*
X83020000Y-113230000D01*
%TO.C,U_RM_SW3*%
X128837500Y-99750000D02*
X128837500Y-105250000D01*
X128837500Y-105250000D02*
X136537500Y-105250000D01*
X136537500Y-99750000D02*
X128837500Y-99750000D01*
X136537500Y-105250000D02*
X136537500Y-99750000D01*
%TO.C,R_PWR2*%
X120020000Y-6770000D02*
X122980000Y-6770000D01*
X120020000Y-8230000D02*
X120020000Y-6770000D01*
X122980000Y-6770000D02*
X122980000Y-8230000D01*
X122980000Y-8230000D02*
X120020000Y-8230000D01*
%TO.C,R27*%
X81020000Y-46770000D02*
X83980000Y-46770000D01*
X81020000Y-48230000D02*
X81020000Y-46770000D01*
X83980000Y-46770000D02*
X83980000Y-48230000D01*
X83980000Y-48230000D02*
X81020000Y-48230000D01*
%TO.C,C_ISO4*%
X36020000Y-43770000D02*
X38980000Y-43770000D01*
X36020000Y-45230000D02*
X36020000Y-43770000D01*
X38980000Y-43770000D02*
X38980000Y-45230000D01*
X38980000Y-45230000D02*
X36020000Y-45230000D01*
%TO.C,D_FE2*%
X112672500Y-48350000D02*
X112672500Y-50650000D01*
X112672500Y-48350000D02*
X117372500Y-48350000D01*
X117372500Y-48350000D02*
X117372500Y-50650000D01*
X117372500Y-50650000D02*
X112672500Y-50650000D01*
%TO.C,C63*%
X78020000Y-99770000D02*
X80980000Y-99770000D01*
X78020000Y-101230000D02*
X78020000Y-99770000D01*
X80980000Y-99770000D02*
X80980000Y-101230000D01*
X80980000Y-101230000D02*
X78020000Y-101230000D01*
%TO.C,H3*%
X9752500Y-144280000D02*
G75*
G02*
X2852500Y-144280000I-3450000J0D01*
G01*
X2852500Y-144280000D02*
G75*
G02*
X9752500Y-144280000I3450000J0D01*
G01*
%TO.C,C_MCU9*%
X33020000Y-61270000D02*
X35980000Y-61270000D01*
X33020000Y-62730000D02*
X33020000Y-61270000D01*
X35980000Y-61270000D02*
X35980000Y-62730000D01*
X35980000Y-62730000D02*
X33020000Y-62730000D01*
%TO.C,K_CAN2*%
X127750000Y-81650000D02*
X127750000Y-72350000D01*
X127750000Y-81650000D02*
X138250000Y-81650000D01*
X138250000Y-72350000D02*
X127750000Y-72350000D01*
X138250000Y-72350000D02*
X138250000Y-81650000D01*
%TO.C,K_RM_F13*%
X123750000Y-41650000D02*
X123750000Y-32350000D01*
X123750000Y-41650000D02*
X134250000Y-41650000D01*
X134250000Y-32350000D02*
X123750000Y-32350000D01*
X134250000Y-32350000D02*
X134250000Y-41650000D01*
%TO.C,C_KL3a1*%
X78020000Y-93770000D02*
X80980000Y-93770000D01*
X78020000Y-95230000D02*
X78020000Y-93770000D01*
X80980000Y-93770000D02*
X80980000Y-95230000D01*
X80980000Y-95230000D02*
X78020000Y-95230000D01*
%TO.C,D_PWR2*%
X155522500Y-20750000D02*
X162522500Y-20750000D01*
X155522500Y-24250000D02*
X155522500Y-20750000D01*
X162522500Y-20750000D02*
X162522500Y-24250000D01*
X162522500Y-24250000D02*
X155522500Y-24250000D01*
%TO.C,C_ISO8*%
X11300000Y-74520000D02*
X14700000Y-74520000D01*
X11300000Y-76480000D02*
X11300000Y-74520000D01*
X14700000Y-74520000D02*
X14700000Y-76480000D01*
X14700000Y-76480000D02*
X11300000Y-76480000D01*
%TO.C,C33*%
X59520000Y-114770000D02*
X62480000Y-114770000D01*
X59520000Y-116230000D02*
X59520000Y-114770000D01*
X62480000Y-114770000D02*
X62480000Y-116230000D01*
X62480000Y-116230000D02*
X59520000Y-116230000D01*
%TO.C,R_J18c1*%
X104520000Y-123770000D02*
X107480000Y-123770000D01*
X104520000Y-125230000D02*
X104520000Y-123770000D01*
X107480000Y-123770000D02*
X107480000Y-125230000D01*
X107480000Y-125230000D02*
X104520000Y-125230000D01*
%TO.C,R_FE2*%
X97020000Y-19770000D02*
X99980000Y-19770000D01*
X97020000Y-21230000D02*
X97020000Y-19770000D01*
X99980000Y-19770000D02*
X99980000Y-21230000D01*
X99980000Y-21230000D02*
X97020000Y-21230000D01*
%TO.C,L_FE1*%
X106500000Y-28750000D02*
X119500000Y-28750000D01*
X119500000Y-42250000D01*
X106500000Y-42250000D01*
X106500000Y-28750000D01*
%TO.C,U_J18B1*%
X103800000Y-109865000D02*
X103800000Y-115265000D01*
X103800000Y-115265000D02*
X111200000Y-115265000D01*
X111200000Y-109865000D02*
X103800000Y-109865000D01*
X111200000Y-115265000D02*
X111200000Y-109865000D01*
%TO.C,R_SW1*%
X96520000Y-35770000D02*
X99480000Y-35770000D01*
X96520000Y-37230000D02*
X96520000Y-35770000D01*
X99480000Y-35770000D02*
X99480000Y-37230000D01*
X99480000Y-37230000D02*
X96520000Y-37230000D01*
%TO.C,U_ISO11*%
X41070000Y-124450000D02*
X41070000Y-135250000D01*
X41070000Y-135250000D02*
X52930000Y-135250000D01*
X52930000Y-124450000D02*
X41070000Y-124450000D01*
X52930000Y-135250000D02*
X52930000Y-124450000D01*
%TO.C,D_J18b1*%
X94672500Y-105350000D02*
X94672500Y-107650000D01*
X94672500Y-105350000D02*
X99372500Y-105350000D01*
X99372500Y-105350000D02*
X99372500Y-107650000D01*
X99372500Y-107650000D02*
X94672500Y-107650000D01*
%TO.C,C_FE10*%
X70020000Y-80770000D02*
X72980000Y-80770000D01*
X70020000Y-82230000D02*
X70020000Y-80770000D01*
X72980000Y-80770000D02*
X72980000Y-82230000D01*
X72980000Y-82230000D02*
X70020000Y-82230000D01*
%TO.C,C_PWR1*%
X129795000Y-20270000D02*
X132755000Y-20270000D01*
X129795000Y-21730000D02*
X129795000Y-20270000D01*
X132755000Y-20270000D02*
X132755000Y-21730000D01*
X132755000Y-21730000D02*
X129795000Y-21730000D01*
%TO.C,Q_KL3*%
X77080000Y-88887500D02*
X77080000Y-92287500D01*
X77080000Y-92287500D02*
X80920000Y-92287500D01*
X80920000Y-88887500D02*
X77080000Y-88887500D01*
X80920000Y-92287500D02*
X80920000Y-88887500D01*
%TO.C,C_MCU2*%
X18020000Y-71270000D02*
X20980000Y-71270000D01*
X18020000Y-72730000D02*
X18020000Y-71270000D01*
X20980000Y-71270000D02*
X20980000Y-72730000D01*
X20980000Y-72730000D02*
X18020000Y-72730000D01*
%TO.C,C_PWR5*%
X125020000Y-6770000D02*
X127980000Y-6770000D01*
X125020000Y-8230000D02*
X125020000Y-6770000D01*
X127980000Y-6770000D02*
X127980000Y-8230000D01*
X127980000Y-8230000D02*
X125020000Y-8230000D01*
%TO.C,U_ISO9*%
X41070000Y-96530000D02*
X41070000Y-107330000D01*
X41070000Y-107330000D02*
X52930000Y-107330000D01*
X52930000Y-96530000D02*
X41070000Y-96530000D01*
X52930000Y-107330000D02*
X52930000Y-96530000D01*
%TO.C,U_SW_CTRL1*%
X55800000Y-54342500D02*
X55800000Y-63502500D01*
X55800000Y-63502500D02*
X63200000Y-63502500D01*
X63200000Y-54342500D02*
X55800000Y-54342500D01*
X63200000Y-63502500D02*
X63200000Y-54342500D01*
%TO.C,C_KL3b1*%
X78020000Y-96770000D02*
X80980000Y-96770000D01*
X78020000Y-98230000D02*
X78020000Y-96770000D01*
X80980000Y-96770000D02*
X80980000Y-98230000D01*
X80980000Y-98230000D02*
X78020000Y-98230000D01*
%TO.C,C_MCU8*%
X16020000Y-109270000D02*
X18980000Y-109270000D01*
X16020000Y-110730000D02*
X16020000Y-109270000D01*
X18980000Y-109270000D02*
X18980000Y-110730000D01*
X18980000Y-110730000D02*
X16020000Y-110730000D01*
%TO.C,C_MCU_A2*%
X26020000Y-60270000D02*
X28980000Y-60270000D01*
X26020000Y-61730000D02*
X26020000Y-60270000D01*
X28980000Y-60270000D02*
X28980000Y-61730000D01*
X28980000Y-61730000D02*
X26020000Y-61730000D01*
%TO.C,LED_PWR1*%
X8540000Y-52770000D02*
X11500000Y-52770000D01*
X8540000Y-54230000D02*
X8540000Y-52770000D01*
X11500000Y-52770000D02*
X11500000Y-54230000D01*
X11500000Y-54230000D02*
X8540000Y-54230000D01*
%TO.C,R_RM1*%
X125020000Y-87770000D02*
X127980000Y-87770000D01*
X125020000Y-89230000D02*
X125020000Y-87770000D01*
X127980000Y-87770000D02*
X127980000Y-89230000D01*
X127980000Y-89230000D02*
X125020000Y-89230000D01*
%TO.C,D_ESD2*%
X152372500Y-80750000D02*
X159672500Y-80750000D01*
X152372500Y-85250000D02*
X152372500Y-80750000D01*
X159672500Y-80750000D02*
X159672500Y-85250000D01*
X159672500Y-85250000D02*
X152372500Y-85250000D01*
%TO.C,U_ISO2*%
X35712500Y-46450000D02*
X35712500Y-50550000D01*
X35712500Y-50550000D02*
X39112500Y-50550000D01*
X39112500Y-46450000D02*
X35712500Y-46450000D01*
X39112500Y-50550000D02*
X39112500Y-46450000D01*
%TO.C,R_J18e1*%
X124020000Y-105770000D02*
X126980000Y-105770000D01*
X124020000Y-107230000D02*
X124020000Y-105770000D01*
X126980000Y-105770000D02*
X126980000Y-107230000D01*
X126980000Y-107230000D02*
X124020000Y-107230000D01*
%TO.C,C70*%
X60020000Y-68770000D02*
X62980000Y-68770000D01*
X60020000Y-70230000D02*
X60020000Y-68770000D01*
X62980000Y-68770000D02*
X62980000Y-70230000D01*
X62980000Y-70230000D02*
X60020000Y-70230000D01*
%TO.C,C72*%
X77020000Y-55770000D02*
X79980000Y-55770000D01*
X77020000Y-57230000D02*
X77020000Y-55770000D01*
X79980000Y-55770000D02*
X79980000Y-57230000D01*
X79980000Y-57230000D02*
X77020000Y-57230000D01*
%TO.C,U_PWR1*%
X129450000Y-16712499D02*
X129450000Y-20112499D01*
X129450000Y-20112499D02*
X133550000Y-20112499D01*
X133550000Y-16712499D02*
X129450000Y-16712499D01*
X133550000Y-20112499D02*
X133550000Y-16712499D01*
%TO.C,C39*%
X26020000Y-56270000D02*
X28980000Y-56270000D01*
X26020000Y-57730000D02*
X26020000Y-56270000D01*
X28980000Y-56270000D02*
X28980000Y-57730000D01*
X28980000Y-57730000D02*
X26020000Y-57730000D01*
%TO.C,C29*%
X66520000Y-28770000D02*
X69480000Y-28770000D01*
X66520000Y-30230000D02*
X66520000Y-28770000D01*
X69480000Y-28770000D02*
X69480000Y-30230000D01*
X69480000Y-30230000D02*
X66520000Y-30230000D01*
%TO.C,R25*%
X92020000Y-41770000D02*
X94980000Y-41770000D01*
X92020000Y-43230000D02*
X92020000Y-41770000D01*
X94980000Y-41770000D02*
X94980000Y-43230000D01*
X94980000Y-43230000D02*
X92020000Y-43230000D01*
%TO.C,U_ISO7*%
X41070000Y-68610000D02*
X41070000Y-79410000D01*
X41070000Y-79410000D02*
X52930000Y-79410000D01*
X52930000Y-68610000D02*
X41070000Y-68610000D01*
X52930000Y-79410000D02*
X52930000Y-68610000D01*
%TO.C,R18*%
X77020000Y-49770000D02*
X79980000Y-49770000D01*
X77020000Y-51230000D02*
X77020000Y-49770000D01*
X79980000Y-49770000D02*
X79980000Y-51230000D01*
X79980000Y-51230000D02*
X77020000Y-51230000D01*
%TO.C,K_RM_F9*%
X103750000Y-81650000D02*
X103750000Y-72350000D01*
X103750000Y-81650000D02*
X114250000Y-81650000D01*
X114250000Y-72350000D02*
X103750000Y-72350000D01*
X114250000Y-72350000D02*
X114250000Y-81650000D01*
%TO.C,C38*%
X30020000Y-118270000D02*
X32980000Y-118270000D01*
X30020000Y-119730000D02*
X30020000Y-118270000D01*
X32980000Y-118270000D02*
X32980000Y-119730000D01*
X32980000Y-119730000D02*
X30020000Y-119730000D01*
%TO.C,K_J18*%
X88750000Y-91650000D02*
X88750000Y-82350000D01*
X88750000Y-91650000D02*
X99250000Y-91650000D01*
X99250000Y-82350000D02*
X88750000Y-82350000D01*
X99250000Y-82350000D02*
X99250000Y-91650000D01*
%TO.C,J1*%
X168690000Y-54570000D02*
X168690000Y-108670000D01*
X168690000Y-108670000D02*
X188610000Y-108670000D01*
X188610000Y-54570000D02*
X168690000Y-54570000D01*
X188610000Y-108670000D02*
X188610000Y-54570000D01*
%TO.C,D_USB1*%
X29950000Y-99387500D02*
X29950000Y-102787500D01*
X29950000Y-102787500D02*
X34050000Y-102787500D01*
X34050000Y-99387500D02*
X29950000Y-99387500D01*
X34050000Y-102787500D02*
X34050000Y-99387500D01*
%TO.C,D_ESD10*%
X144372500Y-83750000D02*
X151672500Y-83750000D01*
X144372500Y-88250000D02*
X144372500Y-83750000D01*
X151672500Y-83750000D02*
X151672500Y-88250000D01*
X151672500Y-88250000D02*
X144372500Y-88250000D01*
%TO.C,C_PWR6*%
X144520000Y-9770000D02*
X147480000Y-9770000D01*
X144520000Y-11230000D02*
X144520000Y-9770000D01*
X147480000Y-9770000D02*
X147480000Y-11230000D01*
X147480000Y-11230000D02*
X144520000Y-11230000D01*
%TO.C,C_MCU5*%
X30020000Y-110270000D02*
X32980000Y-110270000D01*
X30020000Y-111730000D02*
X30020000Y-110270000D01*
X32980000Y-110270000D02*
X32980000Y-111730000D01*
X32980000Y-111730000D02*
X30020000Y-111730000D01*
%TO.C,H1*%
X9752500Y-4375000D02*
G75*
G02*
X2852500Y-4375000I-3450000J0D01*
G01*
X2852500Y-4375000D02*
G75*
G02*
X9752500Y-4375000I3450000J0D01*
G01*
%TO.C,R_J18i1*%
X112520000Y-109770000D02*
X115480000Y-109770000D01*
X112520000Y-111230000D02*
X112520000Y-109770000D01*
X115480000Y-109770000D02*
X115480000Y-111230000D01*
X115480000Y-111230000D02*
X112520000Y-111230000D01*
%TO.C,D_ESD9*%
X154372500Y-41750000D02*
X161672500Y-41750000D01*
X154372500Y-46250000D02*
X154372500Y-41750000D01*
X161672500Y-41750000D02*
X161672500Y-46250000D01*
X161672500Y-46250000D02*
X154372500Y-46250000D01*
%TO.C,C67*%
X87020000Y-48770000D02*
X89980000Y-48770000D01*
X87020000Y-50230000D02*
X87020000Y-48770000D01*
X89980000Y-48770000D02*
X89980000Y-50230000D01*
X89980000Y-50230000D02*
X87020000Y-50230000D01*
%TO.C,C_PWR8*%
X124300000Y-9520000D02*
X127700000Y-9520000D01*
X124300000Y-11480000D02*
X124300000Y-9520000D01*
X127700000Y-9520000D02*
X127700000Y-11480000D01*
X127700000Y-11480000D02*
X124300000Y-11480000D01*
%TO.C,C_PWR4*%
X130300000Y-6520000D02*
X133700000Y-6520000D01*
X130300000Y-8480000D02*
X130300000Y-6520000D01*
X133700000Y-6520000D02*
X133700000Y-8480000D01*
X133700000Y-8480000D02*
X130300000Y-8480000D01*
%TO.C,D_BN2*%
X144372500Y-72750000D02*
X151672500Y-72750000D01*
X144372500Y-77250000D02*
X144372500Y-72750000D01*
X151672500Y-72750000D02*
X151672500Y-77250000D01*
X151672500Y-77250000D02*
X144372500Y-77250000D01*
%TO.C,R_KL1a1*%
X86020000Y-42770000D02*
X88980000Y-42770000D01*
X86020000Y-44230000D02*
X86020000Y-42770000D01*
X88980000Y-42770000D02*
X88980000Y-44230000D01*
X88980000Y-44230000D02*
X86020000Y-44230000D01*
%TO.C,R_PWR1*%
X124020000Y-12770000D02*
X126980000Y-12770000D01*
X124020000Y-14230000D02*
X124020000Y-12770000D01*
X126980000Y-12770000D02*
X126980000Y-14230000D01*
X126980000Y-14230000D02*
X124020000Y-14230000D01*
%TO.C,R_FE1*%
X97020000Y-22770000D02*
X99980000Y-22770000D01*
X97020000Y-24230000D02*
X97020000Y-22770000D01*
X99980000Y-22770000D02*
X99980000Y-24230000D01*
X99980000Y-24230000D02*
X97020000Y-24230000D01*
%TO.C,D_ESD6*%
X154580000Y-92887500D02*
X154580000Y-96287500D01*
X154580000Y-96287500D02*
X158420000Y-96287500D01*
X158420000Y-92887500D02*
X154580000Y-92887500D01*
X158420000Y-96287500D02*
X158420000Y-92887500D01*
%TO.C,C_FE5*%
X69020000Y-38770000D02*
X71980000Y-38770000D01*
X69020000Y-40230000D02*
X69020000Y-38770000D01*
X71980000Y-38770000D02*
X71980000Y-40230000D01*
X71980000Y-40230000D02*
X69020000Y-40230000D01*
%TO.C,R_KL2b1*%
X81020000Y-40770000D02*
X83980000Y-40770000D01*
X81020000Y-42230000D02*
X81020000Y-40770000D01*
X83980000Y-40770000D02*
X83980000Y-42230000D01*
X83980000Y-42230000D02*
X81020000Y-42230000D01*
%TO.C,K_CAN4*%
X129750000Y-61650000D02*
X129750000Y-52350000D01*
X129750000Y-61650000D02*
X140250000Y-61650000D01*
X140250000Y-52350000D02*
X129750000Y-52350000D01*
X140250000Y-52350000D02*
X140250000Y-61650000D01*
%TO.C,C60*%
X97020000Y-111770000D02*
X99980000Y-111770000D01*
X97020000Y-113230000D02*
X97020000Y-111770000D01*
X99980000Y-111770000D02*
X99980000Y-113230000D01*
X99980000Y-113230000D02*
X97020000Y-113230000D01*
%TD*%
M02*
