%TF.GenerationSoftware,KiCad,Pcbnew,10.0.4-10.0.4~ubuntu24.04.1*%
%TF.CreationDate,2026-07-23T06:59:04+00:00*%
%TF.ProjectId,omnibox-v1,6f6d6e69-626f-4782-9d76-312e6b696361,rev?*%
%TF.SameCoordinates,Original*%
%TF.FileFunction,Glue,Top*%
%TF.FilePolarity,Positive*%
%FSLAX46Y46*%
G04 Gerber Fmt 4.6, Leading zero omitted, Abs format (unit mm)*
G04 Created by KiCad (PCBNEW 10.0.4-10.0.4~ubuntu24.04.1) date 2026-07-23 06:59:04*
%MOMM*%
%LPD*%
G01*
G04 APERTURE LIST*
%ADD10C,0.116667*%
%ADD11C,0.083333*%
%ADD12C,0.100000*%
%ADD13C,0.380000*%
G04 APERTURE END LIST*
%TO.C,X_CAN1*%
D10*
X61058333Y-52000000D02*
G75*
G02*
X60941667Y-52000000I-58333J0D01*
G01*
X60941667Y-52000000D02*
G75*
G02*
X61058333Y-52000000I58333J0D01*
G01*
D11*
X61133333Y-52000000D02*
G75*
G02*
X60866667Y-52000000I-133333J0D01*
G01*
X60866667Y-52000000D02*
G75*
G02*
X61133333Y-52000000I133333J0D01*
G01*
X61208333Y-52000000D02*
G75*
G02*
X60791667Y-52000000I-208333J0D01*
G01*
X60791667Y-52000000D02*
G75*
G02*
X61208333Y-52000000I208333J0D01*
G01*
D12*
X61250000Y-52000000D02*
G75*
G02*
X60750000Y-52000000I-250000J0D01*
G01*
X60750000Y-52000000D02*
G75*
G02*
X61250000Y-52000000I250000J0D01*
G01*
%TO.C,L_PWR1*%
D13*
X155712132Y-13000000D02*
G75*
G02*
X155287868Y-13000000I-212132J0D01*
G01*
X155287868Y-13000000D02*
G75*
G02*
X155712132Y-13000000I212132J0D01*
G01*
X156050000Y-13000000D02*
G75*
G02*
X154950000Y-13000000I-550000J0D01*
G01*
X154950000Y-13000000D02*
G75*
G02*
X156050000Y-13000000I550000J0D01*
G01*
X156400000Y-13000000D02*
G75*
G02*
X154600000Y-13000000I-900000J0D01*
G01*
X154600000Y-13000000D02*
G75*
G02*
X156400000Y-13000000I900000J0D01*
G01*
%TO.C,X_SW1*%
D10*
X61058333Y-66000000D02*
G75*
G02*
X60941667Y-66000000I-58333J0D01*
G01*
X60941667Y-66000000D02*
G75*
G02*
X61058333Y-66000000I58333J0D01*
G01*
D11*
X61133333Y-66000000D02*
G75*
G02*
X60866667Y-66000000I-133333J0D01*
G01*
X60866667Y-66000000D02*
G75*
G02*
X61133333Y-66000000I133333J0D01*
G01*
X61208333Y-66000000D02*
G75*
G02*
X60791667Y-66000000I-208333J0D01*
G01*
X60791667Y-66000000D02*
G75*
G02*
X61208333Y-66000000I208333J0D01*
G01*
D12*
X61250000Y-66000000D02*
G75*
G02*
X60750000Y-66000000I-250000J0D01*
G01*
X60750000Y-66000000D02*
G75*
G02*
X61250000Y-66000000I250000J0D01*
G01*
%TO.C,X_CAN2*%
D10*
X63058333Y-73000000D02*
G75*
G02*
X62941667Y-73000000I-58333J0D01*
G01*
X62941667Y-73000000D02*
G75*
G02*
X63058333Y-73000000I58333J0D01*
G01*
D11*
X63133333Y-73000000D02*
G75*
G02*
X62866667Y-73000000I-133333J0D01*
G01*
X62866667Y-73000000D02*
G75*
G02*
X63133333Y-73000000I133333J0D01*
G01*
X63208333Y-73000000D02*
G75*
G02*
X62791667Y-73000000I-208333J0D01*
G01*
X62791667Y-73000000D02*
G75*
G02*
X63208333Y-73000000I208333J0D01*
G01*
D12*
X63250000Y-73000000D02*
G75*
G02*
X62750000Y-73000000I-250000J0D01*
G01*
X62750000Y-73000000D02*
G75*
G02*
X63250000Y-73000000I250000J0D01*
G01*
%TD*%
M02*
